<svg xmlns="http://www.w3.org/2000/svg" width="79" height="91" viewBox="0 0 79 91">
  <metadata><?xpacket begin="﻿" id="W5M0MpCehiHzreSzNTczkc9d"?>
<x:xmpmeta xmlns:x="adobe:ns:meta/" x:xmptk="Adobe XMP Core 5.6-c138 79.159824, 2016/09/14-01:09:01        ">
   <rdf:RDF xmlns:rdf="http://www.w3.org/1999/02/22-rdf-syntax-ns#">
      <rdf:Description rdf:about=""/>
   </rdf:RDF>
</x:xmpmeta>
                                                                                                    
                                                                                                    
                                                                                                    
                                                                                                    
                                                                                                    
                                                                                                    
                                                                                                    
                                                                                                    
                                                                                                    
                                                                                                    
                                                                                                    
                                                                                                    
                                                                                                    
                                                                                                    
                                                                                                    
                                                                                                    
                                                                                                    
                                                                                                    
                                                                                                    
                                                                                                    
                           
<?xpacket end="w"?></metadata>
<defs>
    <style>
      .cls-1 {
        fill: #fff;
        fill-rule: evenodd;
      }
    </style>
  </defs>
  <path id="Forma_1" data-name="Forma 1" class="cls-1" d="M1122.98,2626.38c0-.05-0.01-0.09-0.01-0.14a2.106,2.106,0,0,0-.17-0.5h-0.01v-0.01a1.444,1.444,0,0,0-.35-0.39c-0.03-.03-0.07-0.05-0.1-0.08s-0.06-.05-0.1-0.07l-37.98-22a0.358,0.358,0,0,0-.11-0.04c-0.04-.02-0.08-0.04-0.13-0.06a1.547,1.547,0,0,0-1.04,0c-0.05.02-.09,0.04-0.13,0.06a0.358,0.358,0,0,0-.11.04l-37.98,22a0.705,0.705,0,0,0-.09.07,0.444,0.444,0,0,0-.11.08,1.609,1.609,0,0,0-.35.39,0.01,0.01,0,0,1-.01.01h0a2.106,2.106,0,0,0-.17.5c0,0.05-.01.09-0.01,0.14a0.5,0.5,0,0,0-.02.12v43.99a0.5,0.5,0,0,0,.02.12c0,0.05.01,0.09,0.01,0.14a2.27,2.27,0,0,0,.17.5h0c0.02,0.03.05,0.05,0.07,0.08a1.3,1.3,0,0,0,.18.23,0.794,0.794,0,0,0,.18.14,1.47,1.47,0,0,0,.13.1l37.98,22a0.358,0.358,0,0,0,.11.04,0.5,0.5,0,0,0,.13.05,1.284,1.284,0,0,0,1.04,0,0.5,0.5,0,0,0,.13-0.05,0.358,0.358,0,0,0,.11-0.04l37.98-22a1.47,1.47,0,0,0,.13-0.1,0.794,0.794,0,0,0,.18-0.14,1.3,1.3,0,0,0,.18-0.23,0.417,0.417,0,0,0,.06-0.08h0.01a2.27,2.27,0,0,0,.17-0.5c0-.05.01-0.09,0.01-0.14a0.5,0.5,0,0,0,.02-0.12V2626.5A0.5,0.5,0,0,0,1122.98,2626.38Zm-75.94,2.75,33.43,19.36-33.43,19.37v-38.73Zm34.94,60.72-33.43-19.36,33.43-19.36v38.72h0Zm0-43.99-33.43-19.36,33.43-19.36v38.72Zm3.04-38.72,33.43,19.36-33.43,19.36v-38.72Zm0,82.71v-38.72l33.43,19.36Zm34.94-21.99-33.43-19.37,33.43-19.36v38.73h0Z" transform="translate(-1044 -2603)"/>
</svg>
