<svg xmlns="http://www.w3.org/2000/svg" width="87" height="87" viewBox="0 0 87 87">
  <metadata><?xpacket begin="﻿" id="W5M0MpCehiHzreSzNTczkc9d"?>
<x:xmpmeta xmlns:x="adobe:ns:meta/" x:xmptk="Adobe XMP Core 5.6-c138 79.159824, 2016/09/14-01:09:01        ">
   <rdf:RDF xmlns:rdf="http://www.w3.org/1999/02/22-rdf-syntax-ns#">
      <rdf:Description rdf:about=""/>
   </rdf:RDF>
</x:xmpmeta>
                                                                                                    
                                                                                                    
                                                                                                    
                                                                                                    
                                                                                                    
                                                                                                    
                                                                                                    
                                                                                                    
                                                                                                    
                                                                                                    
                                                                                                    
                                                                                                    
                                                                                                    
                                                                                                    
                                                                                                    
                                                                                                    
                                                                                                    
                                                                                                    
                                                                                                    
                                                                                                    
                           
<?xpacket end="w"?></metadata>
<defs>
    <style>
      .cls-1 {
        fill: #fff;
        fill-rule: evenodd;
      }
    </style>
  </defs>
  <path class="cls-1" d="M184.55,2688h-52.2a1.45,1.45,0,0,1-1.45-1.45v-23.2a1.45,1.45,0,0,1,2.9,0v4.35h14.5v-21.75a1.45,1.45,0,0,1,2.9,0v4.35h14.5v-21.75a1.45,1.45,0,1,1,2.9,0v4.35h14.5v-4.35a1.45,1.45,0,1,1,2.9,0v58A1.45,1.45,0,0,1,184.55,2688Zm-36.25-17.4H133.8v14.5h14.5v-14.5Zm17.4-17.4H151.2v14.5h14.5v-14.5Zm0,17.4H151.2v14.5h14.5v-14.5Zm17.4-34.8H168.6v14.5h14.5v-14.5Zm0,17.4H168.6v14.5h14.5v-14.5Zm0,17.4H168.6v14.5h14.5v-14.5Zm-40.6-27.55a1.447,1.447,0,0,1-.507,1.1l-20.3,17.4a1.445,1.445,0,0,1-1.886,0l-20.3-17.4a1.447,1.447,0,0,1,0-2.2l5.484-4.7-5.484-4.7a1.447,1.447,0,0,1,0-2.2l5.484-4.7-5.484-4.7a1.447,1.447,0,0,1,0-2.2l20.3-17.4a1.438,1.438,0,0,1,1.886,0l20.3,17.4a1.447,1.447,0,0,1,0,2.2l-5.484,4.7,5.484,4.7a1.447,1.447,0,0,1,0,2.2l-5.484,4.7,5.484,4.7A1.447,1.447,0,0,1,142.5,2643.05Zm-3.678-23.2-18.072-15.49-18.073,15.49,18.073,15.49Zm0,11.6-4.54-3.89-12.588,10.79a1.445,1.445,0,0,1-1.886,0l-12.588-10.79-4.54,3.89,18.071,15.49Zm-4.54,7.71-12.588,10.79a1.445,1.445,0,0,1-1.886,0l-12.588-10.79-4.54,3.89,18.071,15.49,18.071-15.49Z" transform="translate(-99 -2601)"/>
</svg>
