<svg xmlns="http://www.w3.org/2000/svg" width="84" height="77" viewBox="0 0 84 77">
  <metadata><?xpacket begin="﻿" id="W5M0MpCehiHzreSzNTczkc9d"?>
<x:xmpmeta xmlns:x="adobe:ns:meta/" x:xmptk="Adobe XMP Core 5.6-c138 79.159824, 2016/09/14-01:09:01        ">
   <rdf:RDF xmlns:rdf="http://www.w3.org/1999/02/22-rdf-syntax-ns#">
      <rdf:Description rdf:about=""/>
   </rdf:RDF>
</x:xmpmeta>
                                                                                                    
                                                                                                    
                                                                                                    
                                                                                                    
                                                                                                    
                                                                                                    
                                                                                                    
                                                                                                    
                                                                                                    
                                                                                                    
                                                                                                    
                                                                                                    
                                                                                                    
                                                                                                    
                                                                                                    
                                                                                                    
                                                                                                    
                                                                                                    
                                                                                                    
                                                                                                    
                           
<?xpacket end="w"?></metadata>
<defs>
    <style>
      .cls-1 {
        fill: #fff;
        fill-rule: evenodd;
      }
    </style>
  </defs>
  <path id="Forma_1" data-name="Forma 1" class="cls-1" d="M1287.25,2634.5a1.75,1.75,0,0,1,0,3.5h-3.5a1.75,1.75,0,0,1,0-3.5h3.5Zm10.5-6.3a1.746,1.746,0,0,1-1.75-1.75v-4.03a1.75,1.75,0,0,1,3.5,0v4.03A1.746,1.746,0,0,1,1297.75,2628.2Zm1.75,8.05a1.746,1.746,0,0,1-1.75,1.75h-3.5a1.75,1.75,0,0,1,0-3.5H1296a1.75,1.75,0,0,1,3.5,0v1.75Zm50.75,33.25H1327.5v15.75a1.746,1.746,0,0,1-1.75,1.75h-56a1.746,1.746,0,0,1-1.75-1.75v-7a1.75,1.75,0,0,1,3.5,0v5.25H1324v-15.75a1.746,1.746,0,0,1,1.75-1.75h22.75v-28H1317v5.25a1.75,1.75,0,0,1-3.5,0v-7a1.746,1.746,0,0,1,1.75-1.75h33.25v-21h-49v0.87a1.75,1.75,0,0,1-3.5,0v-0.87h-24.5v42H1296v-5.25a1.75,1.75,0,0,1,3.5,0v7a1.746,1.746,0,0,1-1.75,1.75h-28a1.746,1.746,0,0,1-1.75-1.75v-45.5a1.746,1.746,0,0,1,1.75-1.75h80.5a1.746,1.746,0,0,1,1.75,1.75v56A1.746,1.746,0,0,1,1350.25,2669.5Zm-77-35h3.5a1.75,1.75,0,0,1,0,3.5h-3.5A1.75,1.75,0,0,1,1273.25,2634.5Z" transform="translate(-1268 -2610)"/>
</svg>
