<svg xmlns="http://www.w3.org/2000/svg" width="82" height="82" viewBox="0 0 82 82">
  <metadata><?xpacket begin="﻿" id="W5M0MpCehiHzreSzNTczkc9d"?>
<x:xmpmeta xmlns:x="adobe:ns:meta/" x:xmptk="Adobe XMP Core 5.6-c138 79.159824, 2016/09/14-01:09:01        ">
   <rdf:RDF xmlns:rdf="http://www.w3.org/1999/02/22-rdf-syntax-ns#">
      <rdf:Description rdf:about=""/>
   </rdf:RDF>
</x:xmpmeta>
                                                                                                    
                                                                                                    
                                                                                                    
                                                                                                    
                                                                                                    
                                                                                                    
                                                                                                    
                                                                                                    
                                                                                                    
                                                                                                    
                                                                                                    
                                                                                                    
                                                                                                    
                                                                                                    
                                                                                                    
                                                                                                    
                                                                                                    
                                                                                                    
                                                                                                    
                                                                                                    
                           
<?xpacket end="w"?></metadata>
<defs>
    <style>
      .cls-1 {
        fill: #fff;
        fill-rule: evenodd;
      }
    </style>
  </defs>
  <path id="Forma_1" data-name="Forma 1" class="cls-1" d="M885.217,2613.13a1.783,1.783,0,0,1-1.782-1.78v-1.78h-1.783a1.785,1.785,0,0,1,0-3.57h3.565a1.784,1.784,0,0,1,1.783,1.78v3.57A1.784,1.784,0,0,1,885.217,2613.13Zm-10.047-3.56h-6.481a1.785,1.785,0,0,1,0-3.57h6.481A1.785,1.785,0,0,1,875.17,2609.57Zm-12.966,0h-6.482a1.785,1.785,0,0,1,0-3.57H862.2A1.785,1.785,0,0,1,862.2,2609.57Zm-12.963,0h-6.482a1.785,1.785,0,0,1,0-3.57h6.482A1.785,1.785,0,0,1,849.241,2609.57Zm-12.963,0H829.8a1.785,1.785,0,0,1,0-3.57h6.478A1.785,1.785,0,0,1,836.278,2609.57Zm-12.967,0h-6.482a1.785,1.785,0,0,1,0-3.57h6.482A1.785,1.785,0,0,1,823.311,2609.57Zm-12.963,0h-1.783v1.78a1.783,1.783,0,0,1-3.565,0v-3.57a1.784,1.784,0,0,1,1.783-1.78h3.565A1.785,1.785,0,0,1,810.348,2609.57Zm-3.565,6.48a1.783,1.783,0,0,1,1.782,1.78v6.48a1.783,1.783,0,1,1-3.565,0v-6.48A1.784,1.784,0,0,1,806.783,2616.05Zm0,12.96a1.785,1.785,0,0,1,1.782,1.79v6.47a1.783,1.783,0,1,1-3.565,0v-6.47A1.786,1.786,0,0,1,806.783,2629.01Zm39.434-6.92a1.784,1.784,0,0,1-1.783-1.78v-6.48a1.783,1.783,0,0,1,3.566,0v6.48A1.784,1.784,0,0,1,846.217,2622.09ZM848,2633.27a1.783,1.783,0,1,1-3.566,0v-6.48a1.783,1.783,0,0,1,3.566,0v6.48Zm-41.217,8.71a1.783,1.783,0,0,1,1.782,1.78v1.46h35.869v-5.46a1.783,1.783,0,0,1,3.566,0v6.48a1.742,1.742,0,0,1-.218.81v37.38h1.459a1.785,1.785,0,0,1,0,3.57H806.783a1.784,1.784,0,0,1-1.783-1.78v-42.46A1.778,1.778,0,0,1,806.783,2641.98Zm1.782,8.27v34.18h35.652v-35.65H808.565v1.47ZM849.8,2649a2.013,2.013,0,0,1,0-4h6.478a2.013,2.013,0,0,1,0,4H849.8Zm5.924,35.43H862.2a1.785,1.785,0,0,1,0,3.57h-6.482A1.785,1.785,0,0,1,855.722,2684.43Zm7.039-35.43a2.013,2.013,0,0,1,0-4h6.482a2.013,2.013,0,0,1,0,4h-6.482Zm5.928,35.43h6.481a1.785,1.785,0,0,1,0,3.57h-6.481A1.785,1.785,0,0,1,868.689,2684.43ZM887,2676.17a1.783,1.783,0,0,1-3.566,0v-6.48a1.783,1.783,0,1,1,3.566,0v6.48Zm0-12.97a1.783,1.783,0,1,1-3.566,0v-6.47a1.783,1.783,0,1,1,3.566,0v6.47Zm0-12.96a1.783,1.783,0,0,1-3.566,0v-1.79a1.675,1.675,0,0,1-1.225.55h-6.481a2.013,2.013,0,0,1,0-4h6.481a1.675,1.675,0,0,1,1.225.55v-1.79a1.783,1.783,0,0,1,3.566,0v6.48Zm-1.783-24.15a1.784,1.784,0,0,1-1.783-1.78v-6.48a1.783,1.783,0,0,1,3.566,0v6.48A1.784,1.784,0,0,1,885.217,2626.09ZM887,2637.27a1.783,1.783,0,1,1-3.566,0v-6.48a1.783,1.783,0,0,1,3.566,0v6.48Zm-5.348,47.16h1.782v-1.78a1.783,1.783,0,0,1,3.566,0v3.57a1.784,1.784,0,0,1-1.783,1.78h-3.565A1.785,1.785,0,0,1,881.652,2684.43Z" transform="translate(-805 -2606)"/>
</svg>
