<svg xmlns="http://www.w3.org/2000/svg" width="21.03" height="18.25" viewBox="0 0 21.03 18.25">
  <metadata><?xpacket begin="﻿" id="W5M0MpCehiHzreSzNTczkc9d"?>
<x:xmpmeta xmlns:x="adobe:ns:meta/" x:xmptk="Adobe XMP Core 5.6-c138 79.159824, 2016/09/14-01:09:01        ">
   <rdf:RDF xmlns:rdf="http://www.w3.org/1999/02/22-rdf-syntax-ns#">
      <rdf:Description rdf:about=""/>
   </rdf:RDF>
</x:xmpmeta>
                                                                                                    
                                                                                                    
                                                                                                    
                                                                                                    
                                                                                                    
                                                                                                    
                                                                                                    
                                                                                                    
                                                                                                    
                                                                                                    
                                                                                                    
                                                                                                    
                                                                                                    
                                                                                                    
                                                                                                    
                                                                                                    
                                                                                                    
                                                                                                    
                                                                                                    
                                                                                                    
                           
<?xpacket end="w"?></metadata>
<defs>
    <style>
      .cls-1 {
        fill: #323232;
        fill-rule: evenodd;
      }
    </style>
  </defs>
  <path id="Forma_1" data-name="Forma 1" class="cls-1" d="M1396.16,432.919l-1.83,7.5a0.745,0.745,0,0,1-.72.568h-12.95a0.713,0.713,0,0,1-.72-0.593l-2.31-10.561h-2.5V428.35h3.1a0.746,0.746,0,0,1,.72.569l0.72,3.085h15.77a0.674,0.674,0,0,1,.57.3A0.694,0.694,0,0,1,1396.16,432.919Zm-1.63.638a0.446,0.446,0,0,0-.38-0.2h-13.11l-0.92.06,1.1,5.813a0.474,0.474,0,0,0,.47.4h11.24a0.492,0.492,0,0,0,.48-0.379l1.22-5.281A0.445,0.445,0,0,0,1394.53,433.557Zm-11.95,9.271a1.875,1.875,0,1,1-1.87,1.875A1.876,1.876,0,0,1,1382.58,442.828Zm9,0a1.875,1.875,0,1,1-1.87,1.875A1.876,1.876,0,0,1,1391.58,442.828Z" transform="translate(-1375.13 -428.344)"/>
</svg>
