<svg xmlns="http://www.w3.org/2000/svg" width="26.34" height="22.812" viewBox="0 0 26.34 22.812">
  <metadata><?xpacket begin="﻿" id="W5M0MpCehiHzreSzNTczkc9d"?>
<x:xmpmeta xmlns:x="adobe:ns:meta/" x:xmptk="Adobe XMP Core 5.6-c138 79.159824, 2016/09/14-01:09:01        ">
   <rdf:RDF xmlns:rdf="http://www.w3.org/1999/02/22-rdf-syntax-ns#">
      <rdf:Description rdf:about=""/>
   </rdf:RDF>
</x:xmpmeta>
                                                                                                    
                                                                                                    
                                                                                                    
                                                                                                    
                                                                                                    
                                                                                                    
                                                                                                    
                                                                                                    
                                                                                                    
                                                                                                    
                                                                                                    
                                                                                                    
                                                                                                    
                                                                                                    
                                                                                                    
                                                                                                    
                                                                                                    
                                                                                                    
                                                                                                    
                                                                                                    
                           
<?xpacket end="w"?></metadata>
<defs>
    <style>
      .cls-1 {
        fill: #fff;
        fill-rule: evenodd;
      }
    </style>
  </defs>
  <path id="Forma_1_copy_2" data-name="Forma 1 copy 2" class="cls-1" d="M1431.2,153.426l-2.29,9.389a0.928,0.928,0,0,1-.9.712H1411.8a0.9,0.9,0,0,1-.9-0.743l-2.88-13.221h-3.13v-1.857h3.87a0.93,0.93,0,0,1,.9.712l0.9,3.863h19.75a0.84,0.84,0,0,1,.71.371A0.867,0.867,0,0,1,1431.2,153.426Zm-2.03.8a0.572,0.572,0,0,0-.48-0.247h-16.42l-1.14.074,1.37,7.278a0.6,0.6,0,0,0,.6.495h14.06a0.611,0.611,0,0,0,.6-0.475l1.53-6.609A0.568,0.568,0,0,0,1429.17,154.225Zm-14.96,11.6a2.348,2.348,0,1,1-2.35,2.348A2.347,2.347,0,0,1,1414.21,165.829Zm11.27,0a2.348,2.348,0,1,1-2.35,2.348A2.347,2.347,0,0,1,1425.48,165.829Z" transform="translate(-1404.88 -147.719)"/>
</svg>
