<svg id="Группа_2" data-name="Группа 2" xmlns="http://www.w3.org/2000/svg" width="39" height="36" viewBox="0 0 39 36">
  <metadata><?xpacket begin="﻿" id="W5M0MpCehiHzreSzNTczkc9d"?>
<x:xmpmeta xmlns:x="adobe:ns:meta/" x:xmptk="Adobe XMP Core 5.6-c138 79.159824, 2016/09/14-01:09:01        ">
   <rdf:RDF xmlns:rdf="http://www.w3.org/1999/02/22-rdf-syntax-ns#">
      <rdf:Description rdf:about=""/>
   </rdf:RDF>
</x:xmpmeta>
                                                                                                    
                                                                                                    
                                                                                                    
                                                                                                    
                                                                                                    
                                                                                                    
                                                                                                    
                                                                                                    
                                                                                                    
                                                                                                    
                                                                                                    
                                                                                                    
                                                                                                    
                                                                                                    
                                                                                                    
                                                                                                    
                                                                                                    
                                                                                                    
                                                                                                    
                                                                                                    
                           
<?xpacket end="w"?></metadata>
<defs>
    <style>
      .cls-1, .cls-4 {
        fill: #323232;
      }

      .cls-2, .cls-3 {
        fill: #ddd;
      }

      .cls-3, .cls-4 {
        fill-rule: evenodd;
      }
    </style>
  </defs>
  <rect id="Rectangle_3_copy" data-name="Rectangle 3 copy" class="cls-1" width="39" height="36"/>
  <circle id="Ellipse_2_copy" data-name="Ellipse 2 copy" class="cls-2" cx="28" cy="11" r="7"/>
  <path id="Forma_1" data-name="Forma 1" class="cls-3" d="M1702,359.516l-2.26,9.041a0.919,0.919,0,0,1-.89.686h-16.01a0.878,0.878,0,0,1-.89-0.715L1679.1,355.8h-3.09v-1.789h3.83a0.92,0.92,0,0,1,.89.686l0.88,3.72h19.5a0.836,0.836,0,0,1,.71.358A0.81,0.81,0,0,1,1702,359.516Zm-2.01.769a0.548,0.548,0,0,0-.47-0.238h-16.21l-1.14.072,1.36,7.008a0.587,0.587,0,0,0,.59.477h13.89a0.6,0.6,0,0,0,.59-0.457l1.51-6.365A0.533,0.533,0,0,0,1699.99,360.285Zm-14.77,11.175a2.261,2.261,0,1,1-2.32,2.26A2.292,2.292,0,0,1,1685.22,371.46Zm11.13,0a2.261,2.261,0,1,1-2.32,2.26A2.292,2.292,0,0,1,1696.35,371.46Z" transform="translate(-1670 -347)"/>
  <path id="Rounded_Rectangle_2_copy" data-name="Rounded Rectangle 2 copy" class="cls-4" d="M1701,359h-2v2a1,1,0,0,1-2,0v-2h-2a1,1,0,0,1,0-2h2v-2a1,1,0,0,1,2,0v2h2A1,1,0,0,1,1701,359Z" transform="translate(-1670 -347)"/>
</svg>
