<svg xmlns="http://www.w3.org/2000/svg" width="34" height="23" viewBox="0 0 34 23">
  <metadata><?xpacket begin="﻿" id="W5M0MpCehiHzreSzNTczkc9d"?>
<x:xmpmeta xmlns:x="adobe:ns:meta/" x:xmptk="Adobe XMP Core 5.6-c138 79.159824, 2016/09/14-01:09:01        ">
   <rdf:RDF xmlns:rdf="http://www.w3.org/1999/02/22-rdf-syntax-ns#">
      <rdf:Description rdf:about=""/>
   </rdf:RDF>
</x:xmpmeta>
                                                                                                    
                                                                                                    
                                                                                                    
                                                                                                    
                                                                                                    
                                                                                                    
                                                                                                    
                                                                                                    
                                                                                                    
                                                                                                    
                                                                                                    
                                                                                                    
                                                                                                    
                                                                                                    
                                                                                                    
                                                                                                    
                                                                                                    
                                                                                                    
                                                                                                    
                                                                                                    
                           
<?xpacket end="w"?></metadata>
<defs>
    <style>
      .cls-1 {
        fill: #8d8d8d;
        fill-rule: evenodd;
      }
    </style>
  </defs>
  <path id="Shape_6_copy_2" data-name="Shape 6 copy 2" class="cls-1" d="M1214,159.486c0,3.761-4.82,7.885-8.16,7.885-3.47,0-8.16-4.055-8.16-7.885,0-.188.02-0.813,0-1.315h0.74l6.55-9.406-0.16-.223-15.6,3.23,6.47,9.028h0.64v1.314c0,3.762-4.82,7.886-8.16,7.886-3.47,0-8.16-4.055-8.16-7.886,0-.188.02-0.812,0-1.314h0.73l6.15-8.824-0.22-1.019,0.63-.131,0.74-.491,0.08-.114,0.51,0.331,17.08-3.538,0.13,0.608,1.08,0.7-0.29.428,6.74,9.417H1214v1.315Zm-32.59,2.693-0.04-.031c0.41,2.595,3.11,6.485,6.79,6.538,3.36,0.048,6.35-3.967,6.8-6.572h-13.5Zm12.62-1.379-5.91-8.246-5.75,8.246h11.66Zm11.77-10.875-5.75,8.246h11.66Zm-6.66,9.561-0.05.064-0.04-.03c0.41,2.594,3.11,6.484,6.79,6.537,3.36,0.048,6.35-3.967,6.8-6.571h-13.5Z" transform="translate(-1180 -147)"/>
</svg>
