<svg xmlns="http://www.w3.org/2000/svg" width="22" height="8" viewBox="0 0 22 8">
  <metadata><?xpacket begin="﻿" id="W5M0MpCehiHzreSzNTczkc9d"?>
<x:xmpmeta xmlns:x="adobe:ns:meta/" x:xmptk="Adobe XMP Core 5.6-c138 79.159824, 2016/09/14-01:09:01        ">
   <rdf:RDF xmlns:rdf="http://www.w3.org/1999/02/22-rdf-syntax-ns#">
      <rdf:Description rdf:about=""/>
   </rdf:RDF>
</x:xmpmeta>
                                                                                                    
                                                                                                    
                                                                                                    
                                                                                                    
                                                                                                    
                                                                                                    
                                                                                                    
                                                                                                    
                                                                                                    
                                                                                                    
                                                                                                    
                                                                                                    
                                                                                                    
                                                                                                    
                                                                                                    
                                                                                                    
                                                                                                    
                                                                                                    
                                                                                                    
                                                                                                    
                           
<?xpacket end="w"?></metadata>
<defs>
    <style>
      .cls-1 {
        fill: #ddd;
        fill-rule: evenodd;
      }
    </style>
  </defs>
  <path id="Forma_1" data-name="Forma 1" class="cls-1" d="M1139.74,467.533a13.548,13.548,0,0,0-2.21-2.2c-0.01,0-.01,0-0.01-0.006a0.243,0.243,0,0,0-.02-0.014l-0.03-.025a0.5,0.5,0,0,1-.07-0.047,0.22,0.22,0,0,0-.05-0.029l-0.06-.038-0.06-.028-0.06-.027c-0.03-.01-0.05-0.018-0.07-0.026l-0.06-.019c-0.02-.008-0.05-0.015-0.07-0.022a0.371,0.371,0,0,1-.05-0.012l-0.09-.016-0.04-.007c-0.03,0-.06-0.006-0.09-0.009l-0.05,0h-0.13a0.776,0.776,0,0,0-.08.006c-0.02,0-.04,0-0.06,0l-0.08.013a0.476,0.476,0,0,1-.05.009l-0.08.02a0.327,0.327,0,0,1-.05.014l-0.08.029c-0.01,0-.03.009-0.04,0.015-0.03.012-.06,0.026-0.09,0.04l-0.03.015c-0.03.016-.06,0.034-0.09,0.052l-0.03.015c-0.03.019-.05,0.04-0.08,0.062a0.034,0.034,0,0,0-.02.013,11.815,11.815,0,0,1-3.06,1.728q-0.03.01-.06,0.024a12.984,12.984,0,0,1-7.09.578l-0.03-.007a12.493,12.493,0,0,1-3.32-1.169,0.449,0.449,0,0,0-.07-0.036,12.1,12.1,0,0,1-1.72-1.118,1.509,1.509,0,0,0-1.96.108,1.142,1.142,0,0,0,.12,1.748q0.54,0.423,1.11.788a10.064,10.064,0,0,1-.84,1.159,1.148,1.148,0,0,0,.28,1.733,1.49,1.49,0,0,0,.83.247,1.45,1.45,0,0,0,1.12-.5,13.958,13.958,0,0,0,1.02-1.4,15.541,15.541,0,0,0,1.61.557,8.989,8.989,0,0,1-.4,1.333,1.208,1.208,0,0,0,.87,1.571,1.558,1.558,0,0,0,.45.067,1.4,1.4,0,0,0,1.32-.84,11.5,11.5,0,0,0,.48-1.612,16.388,16.388,0,0,0,1.67.088h0.06a9.118,9.118,0,0,1,.08,1.381A1.32,1.32,0,0,0,1129.5,473h0.02a1.332,1.332,0,0,0,1.4-1.221,13.267,13.267,0,0,0-.1-1.666,15.906,15.906,0,0,0,1.67-.39,10.4,10.4,0,0,1,.56,1.289,1.376,1.376,0,0,0,1.33.872,1.578,1.578,0,0,0,.41-0.056,1.222,1.222,0,0,0,.92-1.55,12.9,12.9,0,0,0-.67-1.555,14.292,14.292,0,0,0,1.45-.832,11.135,11.135,0,0,1,.98,1.072,1.449,1.449,0,0,0,1.14.524,1.488,1.488,0,0,0,.8-0.227A1.147,1.147,0,0,0,1139.74,467.533Z" transform="translate(-1118 -465)"/>
</svg>
