<svg id="Группа_2" data-name="Группа 2" xmlns="http://www.w3.org/2000/svg" width="40" height="36" viewBox="0 0 40 36">
  <metadata><?xpacket begin="﻿" id="W5M0MpCehiHzreSzNTczkc9d"?>
<x:xmpmeta xmlns:x="adobe:ns:meta/" x:xmptk="Adobe XMP Core 5.6-c138 79.159824, 2016/09/14-01:09:01        ">
   <rdf:RDF xmlns:rdf="http://www.w3.org/1999/02/22-rdf-syntax-ns#">
      <rdf:Description rdf:about=""/>
   </rdf:RDF>
</x:xmpmeta>
                                                                                                    
                                                                                                    
                                                                                                    
                                                                                                    
                                                                                                    
                                                                                                    
                                                                                                    
                                                                                                    
                                                                                                    
                                                                                                    
                                                                                                    
                                                                                                    
                                                                                                    
                                                                                                    
                                                                                                    
                                                                                                    
                                                                                                    
                                                                                                    
                                                                                                    
                                                                                                    
                           
<?xpacket end="w"?></metadata>
<defs>
    <style>
      .cls-1, .cls-2, .cls-4 {
        fill: #323232;
      }

      .cls-2 {
        fill-opacity: 0;
        stroke: #ddd;
        stroke-linejoin: round;
        stroke-width: 2px;
      }

      .cls-2, .cls-4 {
        fill-rule: evenodd;
      }

      .cls-3 {
        fill: #ddd;
      }
    </style>
  </defs>
  <rect id="Rectangle_3_copy_13" data-name="Rectangle 3 copy 13" class="cls-1" width="40" height="36"/>
  <path id="Forma_1_copy_7" data-name="Forma 1 copy 7" class="cls-2" d="M1730.85,376.113l-1.63-1.632c-6.06-5.36-10.03-8.973-10.03-13.4a6.323,6.323,0,0,1,6.42-6.409c1.98,0,3.96,2.311,5.24,3.826,1.28-1.515,3.27-3.826,5.25-3.826a6.321,6.321,0,0,1,6.41,6.409c0,4.428-3.96,8.041-10.03,13.4Z" transform="translate(-1711 -347)"/>
  <circle class="cls-3" cx="29" cy="11" r="7"/>
  <path id="Rounded_Rectangle_2" data-name="Rounded Rectangle 2" class="cls-4" d="M1743,359h-2v2a1,1,0,0,1-2,0v-2h-2a1,1,0,0,1,0-2h2v-2a1,1,0,0,1,2,0v2h2A1,1,0,0,1,1743,359Z" transform="translate(-1711 -347)"/>
</svg>
