<svg xmlns="http://www.w3.org/2000/svg" width="25.47" height="23.313" viewBox="0 0 25.47 23.313">
  <metadata><?xpacket begin="﻿" id="W5M0MpCehiHzreSzNTczkc9d"?>
<x:xmpmeta xmlns:x="adobe:ns:meta/" x:xmptk="Adobe XMP Core 5.6-c138 79.159824, 2016/09/14-01:09:01        ">
   <rdf:RDF xmlns:rdf="http://www.w3.org/1999/02/22-rdf-syntax-ns#">
      <rdf:Description rdf:about=""/>
   </rdf:RDF>
</x:xmpmeta>
                                                                                                    
                                                                                                    
                                                                                                    
                                                                                                    
                                                                                                    
                                                                                                    
                                                                                                    
                                                                                                    
                                                                                                    
                                                                                                    
                                                                                                    
                                                                                                    
                                                                                                    
                                                                                                    
                                                                                                    
                                                                                                    
                                                                                                    
                                                                                                    
                                                                                                    
                                                                                                    
                           
<?xpacket end="w"?></metadata>
<defs>
    <style>
      .cls-1 {
        fill: #8d8d8d;
        fill-rule: evenodd;
      }
    </style>
  </defs>
  <path id="Forma_1" data-name="Forma 1" class="cls-1" d="M1309.76,150.644a1.066,1.066,0,0,1,1.07,1.06v6.434a1.853,1.853,0,0,1,.79,1.356l3.72,2.131a1.06,1.06,0,0,1-.53,1.979,1.069,1.069,0,0,1-.54-0.142l-3.72-2.129a1.84,1.84,0,0,1-.79.179,1.851,1.851,0,0,1-1.07-3.375V151.7A1.065,1.065,0,0,1,1309.76,150.644Zm0,9.808a0.8,0.8,0,1,0-.8-0.8A0.8,0.8,0,0,0,1309.76,160.452Zm14.56-3.047-2.67,3.181a0.537,0.537,0,0,1-.82,0l-0.05-.057-2.62-3.124a0.51,0.51,0,0,1-.08-0.564,0.542,0.542,0,0,1,.49-0.306h1.57a2.029,2.029,0,0,0,.54.027,10.134,10.134,0,1,0-.62,6.351,1.074,1.074,0,0,1,.5.128,1.053,1.053,0,0,1,.39,1.449,11.653,11.653,0,1,1,1.38-7.954h1.58a0.543,0.543,0,0,1,.49.305A0.51,0.51,0,0,1,1324.32,157.405Z" transform="translate(-1299 -147)"/>
</svg>
