<svg xmlns="http://www.w3.org/2000/svg" width="29.812" height="29.812" viewBox="0 0 29.812 29.812">
  <metadata><?xpacket begin="﻿" id="W5M0MpCehiHzreSzNTczkc9d"?>
<x:xmpmeta xmlns:x="adobe:ns:meta/" x:xmptk="Adobe XMP Core 5.6-c138 79.159824, 2016/09/14-01:09:01        ">
   <rdf:RDF xmlns:rdf="http://www.w3.org/1999/02/22-rdf-syntax-ns#">
      <rdf:Description rdf:about=""/>
   </rdf:RDF>
</x:xmpmeta>
                                                                                                    
                                                                                                    
                                                                                                    
                                                                                                    
                                                                                                    
                                                                                                    
                                                                                                    
                                                                                                    
                                                                                                    
                                                                                                    
                                                                                                    
                                                                                                    
                                                                                                    
                                                                                                    
                                                                                                    
                                                                                                    
                                                                                                    
                                                                                                    
                                                                                                    
                                                                                                    
                           
<?xpacket end="w"?></metadata>
<defs>
    <style>
      .cls-1 {
        fill: #b2b2b2;
        fill-rule: evenodd;
      }
    </style>
  </defs>
  <path id="Forma_1" data-name="Forma 1" class="cls-1" d="M337.8,430.525l3.433,3.433a0.582,0.582,0,0,1-.237.967l-3.438,1.08v9.2a0.581,0.581,0,0,1-.4.552l-10.487,3.5,0,0a0.587,0.587,0,0,1-.373,0l-9.333-3.5a0.582,0.582,0,0,1-.378-0.545v-8.959l-3.223-1.074a0.582,0.582,0,0,1-.315-0.852l2.222-3.7-3.524-3.523a0.583,0.583,0,0,1,.239-0.968l9.684-3.019a5.827,5.827,0,0,1,10.965.438l8.361,2.58a0.583,0.583,0,0,1,.24.969Zm1.929,3.577-2.911-2.91-9.352,3.117,2.331,2.914ZM327.067,447.89l9.322-3.106v-8.413l-6.627,2.082a0.583,0.583,0,0,1-.629-0.191l-2.066-2.581V447.89Zm-0.582-14.484,8.644-2.881-3.8-1.267a5.826,5.826,0,0,1-8.779-.3l-4.707,1.568Zm-8.74,11.394,8.157,3.058V436.123l-1.374,2.29a0.584,0.584,0,0,1-.5.283c-0.178,0,.135.065-6.283-2.063V444.8Zm-3.331-10.5,9.355,3.118,1.842-3.07-9.354-3.117Zm6.827-9.012a5.951,5.951,0,0,1,.062-0.845l-8.057,2.512,2.909,2.909,5.732-1.91A5.785,5.785,0,0,1,321.241,425.283Zm10.348-1.134a4.662,4.662,0,1,0-.9,4.067A4.669,4.669,0,0,0,331.589,424.149Zm1.287,0.691c0.011,0.147.017,0.3,0.017,0.443a5.84,5.84,0,0,1-.829,2.993l4.75,1.583,2.907-2.906Zm-5.979,2.6a0.582,0.582,0,0,1-.824,0l-1.166-1.164a0.583,0.583,0,1,1,.824-0.824l0.754,0.753,3.083-3.083a0.582,0.582,0,1,1,.824.823Zm-2.2,15.611a0.583,0.583,0,0,1-.75.341l-1.3-.486a0.583,0.583,0,0,1,.409-1.091l1.3,0.486A0.583,0.583,0,0,1,324.7,443.053Zm-4.042-.878a0.583,0.583,0,1,1,.583-0.583A0.583,0.583,0,0,1,320.658,442.175Zm0.2,1.306,3.5,1.31a0.583,0.583,0,0,1-.409,1.091l-3.5-1.311A0.582,0.582,0,1,1,320.863,443.481Z" transform="translate(-311.594 -419.469)"/>
</svg>
