<svg xmlns="http://www.w3.org/2000/svg" width="22.87" height="22.875" viewBox="0 0 22.87 22.875">
  <metadata><?xpacket begin="﻿" id="W5M0MpCehiHzreSzNTczkc9d"?>
<x:xmpmeta xmlns:x="adobe:ns:meta/" x:xmptk="Adobe XMP Core 5.6-c138 79.159824, 2016/09/14-01:09:01        ">
   <rdf:RDF xmlns:rdf="http://www.w3.org/1999/02/22-rdf-syntax-ns#">
      <rdf:Description rdf:about=""/>
   </rdf:RDF>
</x:xmpmeta>
                                                                                                    
                                                                                                    
                                                                                                    
                                                                                                    
                                                                                                    
                                                                                                    
                                                                                                    
                                                                                                    
                                                                                                    
                                                                                                    
                                                                                                    
                                                                                                    
                                                                                                    
                                                                                                    
                                                                                                    
                                                                                                    
                                                                                                    
                                                                                                    
                                                                                                    
                                                                                                    
                           
<?xpacket end="w"?></metadata>
<defs>
    <style>
      .cls-1 {
        fill: #fff;
        fill-rule: evenodd;

      }
    </style>
  </defs>
  <path class="cls-1" d="M1264.65,166.621a11.445,11.445,0,0,1-13.5,1.988,7.408,7.408,0,0,1-4.11,1.331,5.374,5.374,0,0,1-.81-0.062,1.069,1.069,0,0,1-.31-2.012,4.254,4.254,0,0,0,1.8-2.083A11.435,11.435,0,1,1,1264.65,166.621Zm-0.91-15.27a10.142,10.142,0,0,0-14.77,13.89,0.669,0.669,0,0,1,.11.69,6.513,6.513,0,0,1-1.96,2.706,6.186,6.186,0,0,0,3.59-1.317,0.639,0.639,0,0,1,.39-0.134,0.678,0.678,0,0,1,.33.091A10.147,10.147,0,0,0,1263.74,151.351Zm-2.38,10.954h-9.59a0.647,0.647,0,0,1,0-1.293h9.59A0.647,0.647,0,0,1,1261.36,162.305Zm0-3.128h-9.59a0.647,0.647,0,0,1,0-1.293h9.59A0.647,0.647,0,0,1,1261.36,159.177Zm0-3.127h-9.59a0.647,0.647,0,0,1,0-1.293h9.59A0.647,0.647,0,0,1,1261.36,156.05Z" transform="translate(-1245.13 -147.094)"/>
</svg>
