<svg id="Группа_1" data-name="Группа 1" xmlns="http://www.w3.org/2000/svg" width="103.97" height="31.03" viewBox="0 0 103.97 31.03">
  <metadata><?xpacket begin="﻿" id="W5M0MpCehiHzreSzNTczkc9d"?>
<x:xmpmeta xmlns:x="adobe:ns:meta/" x:xmptk="Adobe XMP Core 5.6-c138 79.159824, 2016/09/14-01:09:01        ">
   <rdf:RDF xmlns:rdf="http://www.w3.org/1999/02/22-rdf-syntax-ns#">
      <rdf:Description rdf:about=""/>
   </rdf:RDF>
</x:xmpmeta>
                                                                                                    
                                                                                                    
                                                                                                    
                                                                                                    
                                                                                                    
                                                                                                    
                                                                                                    
                                                                                                    
                                                                                                    
                                                                                                    
                                                                                                    
                                                                                                    
                                                                                                    
                                                                                                    
                                                                                                    
                                                                                                    
                                                                                                    
                                                                                                    
                                                                                                    
                                                                                                    
                           
<?xpacket end="w"?></metadata>
<defs>
    <style>
      .cls-1 {
        fill: #a2a2a6;
        fill-rule: evenodd;
      }
    </style>
  </defs>
  <path class="cls-1" d="M1399.93,5512.67a13.025,13.025,0,0,0-11.01-10.67l0.28-2.03a14.952,14.952,0,0,1,8.56,4.26,15.125,15.125,0,0,1,4.2,8.1Zm-5.84-4.87a9,9,0,0,1,2.52,4.88l-2.02.35a7.01,7.01,0,0,0-5.94-5.77l0.28-2.03A9.02,9.02,0,0,1,1394.09,5507.8Zm-9.88,6.54a20.237,20.237,0,0,0,4.88,4.44c0.4,0.25.85,0.43,1.27,0.66a0.377,0.377,0,0,0,.54-0.09c0.64-.66,1.3-1.31,1.95-1.96a1.859,1.859,0,0,1,2.79,0c1.05,1.05,2.09,2.09,3.14,3.13a1.865,1.865,0,0,1-.02,2.84c-0.59.6-1.22,1.17-1.78,1.8a3.493,3.493,0,0,1-3.01,1.14,12.5,12.5,0,0,1-4.78-1.39,26.04,26.04,0,0,1-8.65-6.76,23.56,23.56,0,0,1-4.21-7.02,9.02,9.02,0,0,1-.7-3.91,3.16,3.16,0,0,1,.99-2.14c0.67-.64,1.3-1.3,1.96-1.95a1.859,1.859,0,0,1,2.79,0c0.53,0.52,1.06,1.05,1.58,1.57s1.02,1.02,1.53,1.54a1.859,1.859,0,0,1,.01,2.86c-0.64.64-1.28,1.29-1.93,1.92a0.394,0.394,0,0,0-.1.51A11.323,11.323,0,0,0,1384.21,5514.34Z" transform="translate(-1298 -5499.97)"/>
  <path class="cls-1" d="M1352.86,5528.41a14.225,14.225,0,0,1-6.69-1.66l-7.47,2.37a0.516,0.516,0,0,1-.11.02,0.357,0.357,0,0,1-.27-0.12,0.377,0.377,0,0,1-.09-0.38l2.43-7.16a13.892,13.892,0,0,1-1.94-7.09A14.135,14.135,0,1,1,1352.86,5528.41Zm0-25.12a11.161,11.161,0,0,0-11.2,11.1,10.956,10.956,0,0,0,2.13,6.51,0.378,0.378,0,0,1,.05.34l-1.2,3.56,3.74-1.19a0.375,0.375,0,0,1,.11-0.01,0.42,0.42,0,0,1,.21.06A11.134,11.134,0,1,0,1352.86,5503.29Zm4.5,17.8-0.1.01a4.733,4.733,0,0,1-.58.03h0a9.528,9.528,0,0,1-3.54-.9,13.639,13.639,0,0,1-5.86-5.09c-0.03-.04-0.05-0.07-0.06-0.08a6.775,6.775,0,0,1-1.45-3.69,3.631,3.631,0,0,1,1.35-3.1,5.091,5.091,0,0,1,1.75-.45c0.16-.01.12-0.01,0.16-0.01a1.018,1.018,0,0,1,.94.79c0.1,0.23.98,2.37,1.03,2.46a0.993,0.993,0,0,1,.03.93l-0.05.09a2.072,2.072,0,0,1-.34.54c-0.05.07-.11,0.13-0.17,0.2-0.12.15-.24,0.29-0.35,0.41a0.8,0.8,0,0,0-.13.14,0.192,0.192,0,0,0,.04.09,11.066,11.066,0,0,0,4.19,3.72c0.1,0.04.42,0.18,0.44,0.18a0.168,0.168,0,0,0,.08-0.07c0.2-.22.83-0.96,1.04-1.27a0.842,0.842,0,0,1,.71-0.42,1.348,1.348,0,0,1,.49.11c0.37,0.13,2.47,1.16,2.53,1.19a1.324,1.324,0,0,1,.61.44,2.889,2.889,0,0,1-.16,1.91A3.716,3.716,0,0,1,1357.36,5521.09Z" transform="translate(-1298 -5499.97)"/>
  <path id="Forma_1" data-name="Forma 1" class="cls-1" d="M1306.66,5506.01a5.393,5.393,0,0,1,3.06.92,6.532,6.532,0,0,1,1.7-.19,9.284,9.284,0,0,1,6.97,3.02,10.248,10.248,0,0,1,2.88,7.33,11.429,11.429,0,0,1-.23,2.2,6.679,6.679,0,0,1,.59,2.7,5.9,5.9,0,0,1-1.69,4.24,5.428,5.428,0,0,1-6.72,1.03,12.76,12.76,0,0,1-1.8.18,9.337,9.337,0,0,1-6.98-3.02,10.182,10.182,0,0,1-2.9-7.33,9.9,9.9,0,0,1,.22-2.06,5.943,5.943,0,0,1-.81-3.07,5.867,5.867,0,0,1,1.67-4.21,5.358,5.358,0,0,1,4.04-1.74m4.63,15.84a3.243,3.243,0,0,1-1.44-.27,2.5,2.5,0,0,1-.81-0.64c-0.36-.67-0.55-1.03-0.58-1.05a2.27,2.27,0,0,0-.54-0.92,1.57,1.57,0,0,0-.9-0.32,1.394,1.394,0,0,0-1.03.41,1.333,1.333,0,0,0-.41.96,3.591,3.591,0,0,0,.63,1.88,4.629,4.629,0,0,0,1.62,1.51,7.366,7.366,0,0,0,3.55.78,8.089,8.089,0,0,0,3.1-.55,4.71,4.71,0,0,0,1.98-1.6,4.163,4.163,0,0,0,.67-2.29,4.525,4.525,0,0,0-.35-1.83,3.645,3.645,0,0,0-1.13-1.24,8.4,8.4,0,0,0-1.71-.82c-1.01-.31-1.74-0.51-2.15-0.6a7.359,7.359,0,0,1-.79-0.16,6.23,6.23,0,0,1-.61-0.16,4.4,4.4,0,0,1-.76-0.32,1.679,1.679,0,0,1-.59-0.5,0.808,0.808,0,0,1-.22-0.6,1.176,1.176,0,0,1,.63-0.96,2.7,2.7,0,0,1,1.71-.46,2.758,2.758,0,0,1,1.66.41,3.1,3.1,0,0,1,.85,1.15,4.51,4.51,0,0,0,.59.82,1.318,1.318,0,0,0,.85.28,1.37,1.37,0,0,0,1.03-.46,1.342,1.342,0,0,0,.41-1.01,3.259,3.259,0,0,0-.32-1.19,6.491,6.491,0,0,0-.94-1.1,5.966,5.966,0,0,0-1.66-.87,8.194,8.194,0,0,0-2.3-.32,7.61,7.61,0,0,0-2.87.51,3.985,3.985,0,0,0-1.93,1.37,3.647,3.647,0,0,0-.05,4.17,4.284,4.284,0,0,0,1.71,1.28,12.187,12.187,0,0,0,2.61.82c0.17,0.03.39,0.09,0.65,0.16s0.48,0.14.67,0.19,0.35,0.08.47,0.11a2.657,2.657,0,0,1,1.04.64,1.138,1.138,0,0,1,.4.96,1.528,1.528,0,0,1-.72,1.29,3.557,3.557,0,0,1-2.02.54m-4.63-18.85a8.307,8.307,0,0,0-6.16,2.66,8.933,8.933,0,0,0-2.5,6.3,9.082,9.082,0,0,0,.69,3.54,12.259,12.259,0,0,0-.11,1.59,13.179,13.179,0,0,0,3.74,9.43,12.21,12.21,0,0,0,9.11,3.93,11.671,11.671,0,0,0,1.32-.09,8.089,8.089,0,0,0,3.17.64,8.333,8.333,0,0,0,6.14-2.67,8.977,8.977,0,0,0,2.52-6.34,9.4,9.4,0,0,0-.49-3.01,13.756,13.756,0,0,0,.13-1.89,13.246,13.246,0,0,0-3.71-9.42,12.139,12.139,0,0,0-9.08-3.94,11.279,11.279,0,0,0-1.19.06A8.363,8.363,0,0,0,1306.66,5503Z" transform="translate(-1298 -5499.97)"/>
</svg>
