<svg xmlns="http://www.w3.org/2000/svg" width="29" height="29" viewBox="0 0 29 29">
  <metadata><?xpacket begin="﻿" id="W5M0MpCehiHzreSzNTczkc9d"?>
<x:xmpmeta xmlns:x="adobe:ns:meta/" x:xmptk="Adobe XMP Core 5.6-c138 79.159824, 2016/09/14-01:09:01        ">
   <rdf:RDF xmlns:rdf="http://www.w3.org/1999/02/22-rdf-syntax-ns#">
      <rdf:Description rdf:about=""/>
   </rdf:RDF>
</x:xmpmeta>
                                                                                                    
                                                                                                    
                                                                                                    
                                                                                                    
                                                                                                    
                                                                                                    
                                                                                                    
                                                                                                    
                                                                                                    
                                                                                                    
                                                                                                    
                                                                                                    
                                                                                                    
                                                                                                    
                                                                                                    
                                                                                                    
                                                                                                    
                                                                                                    
                                                                                                    
                                                                                                    
                           
<?xpacket end="w"?></metadata>
<defs>
    <style>
      .cls-1 {
        fill: #b2b2b2;
        fill-rule: evenodd;
      }
    </style>
  </defs>
  <path id="Forma_1" data-name="Forma 1" class="cls-1" d="M62.867,426.051v17.2a1.7,1.7,0,0,1-1.7,1.7h-11.1v3.5a1.7,1.7,0,1,1-1.133,0v-3.5h-11.1a1.7,1.7,0,0,1-1.7-1.7v-17.2a1.7,1.7,0,0,1,.566-3.3H62.3A1.7,1.7,0,0,1,62.867,426.051ZM49.5,450.617a0.567,0.567,0,1,0-.566-0.567A0.567,0.567,0,0,0,49.5,450.617Zm-12.234-7.363a0.567,0.567,0,0,0,.566.566H61.168a0.567,0.567,0,0,0,.566-0.566V426.148H37.266v17.106ZM62.3,423.883H36.7a0.566,0.566,0,1,0,0,1.132H62.3A0.566,0.566,0,1,0,62.3,423.883Zm-3.738,17.332H40.1a0.567,0.567,0,0,1,0-1.133H58.563A0.567,0.567,0,0,1,58.563,441.215Zm-4.531-2.266a5.1,5.1,0,1,1,5.1-5.1A5.1,5.1,0,0,1,54.031,438.949Zm0.566-9.021v3.357h3.357A3.972,3.972,0,0,0,54.6,429.928Zm-0.566,4.49a0.567,0.567,0,0,1-.566-0.567v-3.924a3.965,3.965,0,1,0,4.49,4.491H54.031Zm-7.93,4.531h-6a0.567,0.567,0,0,1,0-1.133h6A0.567,0.567,0,0,1,46.1,438.949Zm0-2.265h-6a0.567,0.567,0,0,1,0-1.133h6A0.567,0.567,0,0,1,46.1,436.684Zm0-2.266a0.567,0.567,0,1,1,.566-0.567A0.567,0.567,0,0,1,46.1,434.418Zm-6-1.133h3.738a0.567,0.567,0,0,1,0,1.133H40.1A0.567,0.567,0,0,1,40.1,433.285Zm6-1.133h-6a0.567,0.567,0,0,1,0-1.133h6A0.567,0.567,0,0,1,46.1,432.152Zm0-2.266a0.566,0.566,0,1,1,.566-0.566A0.566,0.566,0,0,1,46.1,429.886Zm-2.266,0H40.1a0.566,0.566,0,1,1,0-1.132h3.738A0.566,0.566,0,1,1,43.836,429.886Z" transform="translate(-35 -422.75)"/>
</svg>
