<svg xmlns="http://www.w3.org/2000/svg" width="13" height="13" viewBox="0 0 13 13">
  <metadata><?xpacket begin="﻿" id="W5M0MpCehiHzreSzNTczkc9d"?>
<x:xmpmeta xmlns:x="adobe:ns:meta/" x:xmptk="Adobe XMP Core 5.6-c138 79.159824, 2016/09/14-01:09:01        ">
   <rdf:RDF xmlns:rdf="http://www.w3.org/1999/02/22-rdf-syntax-ns#">
      <rdf:Description rdf:about=""/>
   </rdf:RDF>
</x:xmpmeta>
                                                                                                    
                                                                                                    
                                                                                                    
                                                                                                    
                                                                                                    
                                                                                                    
                                                                                                    
                                                                                                    
                                                                                                    
                                                                                                    
                                                                                                    
                                                                                                    
                                                                                                    
                                                                                                    
                                                                                                    
                                                                                                    
                                                                                                    
                                                                                                    
                                                                                                    
                                                                                                    
                           
<?xpacket end="w"?></metadata>
<defs>
    <style>
      .cls-1 {
        fill: #959595;
        fill-rule: evenodd;
      }
    </style>
  </defs>
  <path class="cls-1" d="M990.81,706.307L988.073,712h-4.387l-2.75-1.3H979V711h-1v-7h0v-0.45h3.231l1.581-1V699h0.688a3.351,3.351,0,0,1,3.437,3.25v1.3h1.99a2.149,2.149,0,0,1,.853.175A1.908,1.908,0,0,1,990.81,706.307Zm-1.878-1.457h-3.365v-2.6a1.963,1.963,0,0,0-1.375-1.839v2.837l-2.543,1.6H979v4.55h2.26l2.75,1.3h3.177l2.371-4.932a0.612,0.612,0,0,0,.062-0.268A0.67,0.67,0,0,0,988.932,704.85Z" transform="translate(-978 -699)"/>
</svg>
