<svg xmlns="http://www.w3.org/2000/svg" width="22.187" height="30.657" viewBox="0 0 22.187 30.657">
  <metadata><?xpacket begin="﻿" id="W5M0MpCehiHzreSzNTczkc9d"?>
<x:xmpmeta xmlns:x="adobe:ns:meta/" x:xmptk="Adobe XMP Core 5.6-c138 79.159824, 2016/09/14-01:09:01        ">
   <rdf:RDF xmlns:rdf="http://www.w3.org/1999/02/22-rdf-syntax-ns#">
      <rdf:Description rdf:about=""/>
   </rdf:RDF>
</x:xmpmeta>
                                                                                                    
                                                                                                    
                                                                                                    
                                                                                                    
                                                                                                    
                                                                                                    
                                                                                                    
                                                                                                    
                                                                                                    
                                                                                                    
                                                                                                    
                                                                                                    
                                                                                                    
                                                                                                    
                                                                                                    
                                                                                                    
                                                                                                    
                                                                                                    
                                                                                                    
                                                                                                    
                           
<?xpacket end="w"?></metadata>
<defs>
    <style>
      .cls-1 {
        fill: #b2b2b2;
        fill-rule: evenodd;
      }
    </style>
  </defs>
  <path id="Forma_1" data-name="Forma 1" class="cls-1" d="M205,431.6l-1.654,2.132,0.367,2.671a0.6,0.6,0,0,1-.368.636l-2.5,1.019-1.02,2.5a0.6,0.6,0,0,1-.636.367l-0.978-.134V450.2a0.6,0.6,0,0,1-1.023.424l-3.173-3.171-3.174,3.171a0.6,0.6,0,0,1-1.023-.424v-9.416l-0.978.134a0.6,0.6,0,0,1-.636-0.367l-1.02-2.5-2.5-1.019a0.6,0.6,0,0,1-.367-0.636l0.366-2.671L183.03,431.6a0.6,0.6,0,0,1,0-.734l1.654-2.13-0.366-2.672a0.6,0.6,0,0,1,.367-0.636l2.5-1.019,1.02-2.5a0.6,0.6,0,0,1,.636-0.367l2.674,0.366,2.133-1.653a0.6,0.6,0,0,1,.735,0l2.133,1.653,2.674-.366a0.6,0.6,0,0,1,.636.367l1.02,2.5,2.5,1.019a0.6,0.6,0,0,1,.368.636l-0.367,2.672,1.654,2.13A0.6,0.6,0,0,1,205,431.6Zm-13.982,17.158,2.574-2.572a0.6,0.6,0,0,1,.848,0l2.573,2.572v-8.134l-0.5-.068-2.133,1.652a0.6,0.6,0,0,1-.735,0l-2.133-1.652-0.5.068v8.134Zm11.226-19.487a0.6,0.6,0,0,1-.12-0.448l0.337-2.461-2.3-.939a0.6,0.6,0,0,1-.329-0.328l-0.939-2.3-2.463.337a0.6,0.6,0,0,1-.449-0.12l-1.964-1.523-1.965,1.523a0.607,0.607,0,0,1-.449.12l-2.463-.337-0.939,2.3a0.6,0.6,0,0,1-.328.328l-2.3.939,0.337,2.461a0.6,0.6,0,0,1-.12.448l-1.523,1.962,1.523,1.963a0.6,0.6,0,0,1,.12.449l-0.337,2.46,2.3,0.939a0.6,0.6,0,0,1,.329.328l0.939,2.3,2.463-.337a0.6,0.6,0,0,1,.449.12l1.965,1.522,1.965-1.522a0.6,0.6,0,0,1,.448-0.12l1.109,0.151a0.6,0.6,0,0,1,.309.043l1.045,0.143,0.939-2.3a0.6,0.6,0,0,1,.329-0.328l2.3-.938-0.337-2.461a0.6,0.6,0,0,1,.12-0.448l1.524-1.963Zm-11.786,1.107a0.6,0.6,0,0,1,.484-0.408l1.752-.254,0.784-1.587a0.6,0.6,0,0,1,1.075,0l0.783,1.587,1.753,0.254a0.6,0.6,0,0,1,.332,1.022l-1.268,1.235,0.3,1.744a0.6,0.6,0,0,1-.87.631l-1.567-.823-1.568.823a0.6,0.6,0,0,1-.87-0.631l0.3-1.744-1.268-1.235A0.6,0.6,0,0,1,190.457,430.378Zm2.482,1.211a0.6,0.6,0,0,1,.173.53l-0.148.858,0.772-.4a0.6,0.6,0,0,1,.558,0l0.77,0.4-0.147-.858a0.6,0.6,0,0,1,.173-0.53l0.623-.608-0.862-.125a0.6,0.6,0,0,1-.451-0.327l-0.386-.781-0.385.781a0.6,0.6,0,0,1-.452.327l-0.862.125Zm1.076,6.833a7.2,7.2,0,0,1-7.186-7.552c0.007-.123.016-0.244,0.027-0.361a0.6,0.6,0,0,1,1.194.117c-0.01.1-.018,0.2-0.023,0.305a6,6,0,1,0,1.922-4.1,0.6,0.6,0,1,1-.807-0.885A7.19,7.19,0,1,1,194.015,438.422Zm-6-9.585a0.6,0.6,0,0,1,0-1.2A0.6,0.6,0,1,1,188.019,428.837Z" transform="translate(-182.938 -420.156)"/>
</svg>
