<svg xmlns="http://www.w3.org/2000/svg" width="25" height="17.5" viewBox="0 0 25 17.5">
<defs>
    <style>
      .cls-1 {
        fill-rule: evenodd;
        fill:#056493;
      }
    </style>
  </defs>
  <path id="Shape_6_copy" data-name="Shape 6 copy" class="cls-1" d="M216,111c0,2.862-3.545,6-6,6-2.553,0-6-3.085-6-6,0-.143.015-0.618,0-1h0.541l4.819-7.157-0.118-.169-11.467,2.457L202.532,112H203c0,0.178,0,.857,0,1,0,2.862-3.545,6-6,6-2.553,0-6-3.085-6-6,0-.143.015-0.618,0-1h0.54l4.521-6.714-0.166-.775,0.468-.1,0.539-.374,0.058-.086,0.375,0.252,12.56-2.692,0.1,0.462,0.8,0.536-0.219.326L215.532,110H216C216,110.178,216,110.857,216,111Zm-23.96,2.049-0.035-.023c0.3,1.974,2.292,4.934,5,4.974,2.472,0.037,4.666-3.018,5-5h-9.927ZM201.315,112l-4.344-6.274L192.746,112h8.569Zm8.656-8.274L205.746,110h8.569Zm-4.9,7.274-0.033.049-0.035-.023c0.3,1.974,2.292,4.934,5,4.974,2.472,0.037,4.666-3.018,5-5h-9.927Z" transform="translate(-191 -101.5)"/>
</svg>
