<svg id="_1_copy_3" data-name="1 copy 3" xmlns="http://www.w3.org/2000/svg" xmlns:xlink="http://www.w3.org/1999/xlink" width="76" height="102" viewBox="0 0 76 102">
  <metadata><?xpacket begin="﻿" id="W5M0MpCehiHzreSzNTczkc9d"?>
<x:xmpmeta xmlns:x="adobe:ns:meta/" x:xmptk="Adobe XMP Core 5.6-c138 79.159824, 2016/09/14-01:09:01        ">
   <rdf:RDF xmlns:rdf="http://www.w3.org/1999/02/22-rdf-syntax-ns#">
      <rdf:Description rdf:about=""/>
   </rdf:RDF>
</x:xmpmeta>
                                                                                                    
                                                                                                    
                                                                                                    
                                                                                                    
                                                                                                    
                                                                                                    
                                                                                                    
                                                                                                    
                                                                                                    
                                                                                                    
                                                                                                    
                                                                                                    
                                                                                                    
                                                                                                    
                                                                                                    
                                                                                                    
                                                                                                    
                                                                                                    
                                                                                                    
                                                                                                    
                           
<?xpacket end="w"?></metadata>
<defs>
    <style>
      .cls-1 {
        fill: #f8a303;
        filter: url(#filter);
      }

      .cls-1, .cls-2, .cls-3 {
        fill-rule: evenodd;
      }

      .cls-2 {
        fill: none;
        stroke: #fff;
        stroke-width: 2px;
      }

      .cls-3, .cls-4 {
        fill: #fff;
      }
    </style>
    <filter id="filter" x="1134" y="156" width="76" height="76" filterUnits="userSpaceOnUse">
      <feOffset result="offset" dy="7" in="SourceAlpha"/>
      <feGaussianBlur result="blur" stdDeviation="4"/>
      <feFlood result="flood" flood-color="#000a23" flood-opacity="0.35"/>
      <feComposite result="composite" operator="in" in2="blur"/>
      <feBlend result="blend" in="SourceGraphic"/>
    </filter>
  </defs>
  <path id="Ellipse_2_copy_4" data-name="Ellipse 2 copy 4" class="cls-1" d="M1192.72,205a2.722,2.722,0,0,1-2.72,2.72l-16.42,1.267a2.683,2.683,0,0,1-1.93-.814l-22.14-22.135a1.79,1.79,0,0,1,0-2.533l19-19a1.788,1.788,0,0,1,2.53,0l22.16,22.163c0.01,0.006.01,0.014,0.02,0.02a2.728,2.728,0,0,1,.77,1.892Zm-4.58-4.4a1.79,1.79,0,1,0,0,2.532A1.787,1.787,0,0,0,1188.14,200.606Z" transform="translate(-1134 -156)"/>
  <path class="cls-2" d="M1188,201s28.85,22.139,10,56" transform="translate(-1134 -156)"/>
  <path id="Forma_1_copy_5" data-name="Forma 1 copy 5" class="cls-3" d="M1181.93,193.8c0,0.08-.28.5-1.56,0.9a15.942,15.942,0,0,1-4.51.592,18.1,18.1,0,0,1-2.62-.19,7.34,7.34,0,0,0,1.11-2.043c0.49,0.036.99,0.06,1.51,0.06a16.741,16.741,0,0,0,4.85-.641,6.545,6.545,0,0,0,1.3-.538V193.5A0.441,0.441,0,0,0,1181.93,193.8Zm-1.56-2.4a15.942,15.942,0,0,1-4.51.592c-0.41,0-.81-0.016-1.21-0.04a7.023,7.023,0,0,0,.14-1.384,6.745,6.745,0,0,0-.05-0.783c0.37,0.019.74,0.033,1.12,0.033a16.741,16.741,0,0,0,4.85-.641,6.482,6.482,0,0,0,1.3-.537V190.2a0.438,0.438,0,0,0-.08.293C1181.93,190.572,1181.65,190.994,1180.37,191.4Zm0-3.3a15.905,15.905,0,0,1-4.51.592c-0.45,0-.9-0.02-1.33-0.05a7.523,7.523,0,0,0-1.03-2.262,20.049,20.049,0,0,0,2.36.139,16.741,16.741,0,0,0,4.85-.641,6.541,6.541,0,0,0,1.3-.537V186.9a0.438,0.438,0,0,0-.08.293C1181.93,187.268,1181.65,187.689,1180.37,188.092Zm0-3.3a15.942,15.942,0,0,1-4.51.592,16.789,16.789,0,0,1-3.55-.36,7.466,7.466,0,0,0-2.33-1.414l-0.04-1.5a6.29,6.29,0,0,0,1.27.506,18.6,18.6,0,0,0,9.5-.048,6.545,6.545,0,0,0,1.3-.538v1.563a0.439,0.439,0,0,0-.08.293C1181.93,183.964,1181.65,184.385,1180.37,184.788Zm0-3.389a15.9,15.9,0,0,1-4.51.593,15.5,15.5,0,0,1-4.32-.55c-1.26-.378-1.61-0.8-1.64-0.934a0.014,0.014,0,0,0-.01-0.018c0.01-.086.28-0.5,1.52-0.9a15.2,15.2,0,0,1,4.45-.592,15.851,15.851,0,0,1,4.52.592c1.27,0.4,1.55.818,1.55,0.9S1181.65,181,1180.37,181.4Zm-7.15,8.023a6.393,6.393,0,0,1,.12,1.233,6.187,6.187,0,0,1-1.92,4.506,5.691,5.691,0,0,1-8.26-.409,6.263,6.263,0,0,1,.39-8.6,5.688,5.688,0,0,1,5.67-1.318A6.054,6.054,0,0,1,1173.22,189.422Zm-4.15,2.863a0.611,0.611,0,0,0,0-1.221h-3.45a3,3,0,0,1-.02-0.671h3.77a0.611,0.611,0,0,0,0-1.221h-3.42a3.536,3.536,0,0,1,.51-0.721,2.908,2.908,0,0,1,3.19-.7,0.581,0.581,0,0,0,.76-0.348,0.618,0.618,0,0,0-.34-0.788,4.055,4.055,0,0,0-4.44.983,4.21,4.21,0,0,0-.97,1.582h-0.83a0.611,0.611,0,0,0,0,1.221h0.58a3.764,3.764,0,0,0,.02.671h-0.6a0.611,0.611,0,0,0,0,1.221h0.89a4.161,4.161,0,0,0,5.35,2.412,0.608,0.608,0,0,0,.34-0.788,0.574,0.574,0,0,0-.75-0.354v-0.006a2.905,2.905,0,0,1-3.19-.714,2.105,2.105,0,0,1-.42-0.556h3.02Z" transform="translate(-1134 -156)"/>
  <circle class="cls-4" cx="63.5" cy="99.5" r="2.5"/>
</svg>
