<svg id="_1_copy_4" data-name="1 copy 4" xmlns="http://www.w3.org/2000/svg" xmlns:xlink="http://www.w3.org/1999/xlink" width="76" height="102" viewBox="0 0 76 102">
  <metadata><?xpacket begin="﻿" id="W5M0MpCehiHzreSzNTczkc9d"?>
<x:xmpmeta xmlns:x="adobe:ns:meta/" x:xmptk="Adobe XMP Core 5.6-c138 79.159824, 2016/09/14-01:09:01        ">
   <rdf:RDF xmlns:rdf="http://www.w3.org/1999/02/22-rdf-syntax-ns#">
      <rdf:Description rdf:about=""/>
   </rdf:RDF>
</x:xmpmeta>
                                                                                                    
                                                                                                    
                                                                                                    
                                                                                                    
                                                                                                    
                                                                                                    
                                                                                                    
                                                                                                    
                                                                                                    
                                                                                                    
                                                                                                    
                                                                                                    
                                                                                                    
                                                                                                    
                                                                                                    
                                                                                                    
                                                                                                    
                                                                                                    
                                                                                                    
                                                                                                    
                           
<?xpacket end="w"?></metadata>
<defs>
    <style>
      .cls-1 {
        fill: #f8a303;
        filter: url(#filter);
      }

      .cls-1, .cls-2, .cls-3 {
        fill-rule: evenodd;
      }

      .cls-2 {
        fill: none;
        stroke: #fff;
        stroke-width: 2px;
      }

      .cls-3, .cls-4 {
        fill: #fff;
      }
    </style>
    <filter id="filter" x="835" y="792" width="76" height="76" filterUnits="userSpaceOnUse">
      <feOffset result="offset" dy="7" in="SourceAlpha"/>
      <feGaussianBlur result="blur" stdDeviation="4"/>
      <feFlood result="flood" flood-color="#000a23" flood-opacity="0.35"/>
      <feComposite result="composite" operator="in" in2="blur"/>
      <feBlend result="blend" in="SourceGraphic"/>
    </filter>
  </defs>
  <path id="Ellipse_2_copy_4" data-name="Ellipse 2 copy 4" class="cls-1" d="M893.721,841a2.72,2.72,0,0,1-2.72,2.72l-16.417,1.267a2.714,2.714,0,0,1-1.938-.814l-22.135-22.135a1.792,1.792,0,0,1,0-2.533l19-19a1.792,1.792,0,0,1,2.533,0L894.2,822.674c0.006,0.006.007,0.014,0.013,0.02a2.707,2.707,0,0,1,.771,1.892Zm-4.583-4.4a1.79,1.79,0,1,0,0,2.532A1.789,1.789,0,0,0,889.138,836.606Z" transform="translate(-835 -792)"/>
  <path class="cls-2" d="M889,837s28.853,22.139,10,56" transform="translate(-835 -792)"/>
  <path id="Forma_1_copy_5" data-name="Forma 1 copy 5" class="cls-3" d="M882.929,829.8c0,0.08-.275.5-1.554,0.9a16.009,16.009,0,0,1-4.517.592,18.091,18.091,0,0,1-2.618-.19,7.421,7.421,0,0,0,1.111-2.043c0.492,0.036.993,0.06,1.507,0.06a16.753,16.753,0,0,0,4.851-.641,6.261,6.261,0,0,0,1.3-.538V829.5A0.51,0.51,0,0,0,882.929,829.8Zm-1.554-2.4a16.009,16.009,0,0,1-4.517.592c-0.406,0-.808-0.016-1.2-0.04a7.384,7.384,0,0,0,.091-2.167c0.366,0.019.736,0.033,1.113,0.033a16.753,16.753,0,0,0,4.851-.641,6.2,6.2,0,0,0,1.3-.537V826.2a0.506,0.506,0,0,0-.077.293C882.929,826.572,882.654,826.994,881.375,827.4Zm0-3.305a15.973,15.973,0,0,1-4.517.592c-0.451,0-.895-0.02-1.332-0.05a7.424,7.424,0,0,0-1.029-2.262,20.092,20.092,0,0,0,2.361.139,16.753,16.753,0,0,0,4.851-.641,6.257,6.257,0,0,0,1.3-.537V822.9a0.506,0.506,0,0,0-.077.293C882.929,823.268,882.654,823.689,881.375,824.092Zm0-3.3a16.009,16.009,0,0,1-4.517.592,16.858,16.858,0,0,1-3.552-.36,7.369,7.369,0,0,0-2.331-1.414l-0.036-1.5a6.382,6.382,0,0,0,1.267.506,18.611,18.611,0,0,0,9.5-.048,6.261,6.261,0,0,0,1.3-.538v1.563a0.508,0.508,0,0,0-.077.293C882.929,819.964,882.654,820.385,881.375,820.788Zm0-3.389a15.926,15.926,0,0,1-4.511.593,15.51,15.51,0,0,1-4.323-.55c-1.261-.378-1.613-0.8-1.643-0.934a0.017,0.017,0,0,0-.006-0.018c0.006-.086.276-0.5,1.514-0.9a15.282,15.282,0,0,1,4.458-.592,15.824,15.824,0,0,1,4.517.592c1.273,0.4,1.548.818,1.548,0.9S882.654,817,881.375,817.4Zm-7.151,8.023a6.723,6.723,0,0,1,.118,1.233,6.183,6.183,0,0,1-1.919,4.506,5.69,5.69,0,0,1-8.259-.409,6.265,6.265,0,0,1,.387-8.6,5.733,5.733,0,0,1,3.936-1.588,5.8,5.8,0,0,1,1.737.269A6.056,6.056,0,0,1,874.224,825.422Zm-4.159,2.863a0.611,0.611,0,0,0,0-1.221h-3.443a2.594,2.594,0,0,1-.018-0.671h3.766a0.611,0.611,0,0,0,0-1.221h-3.42a3.58,3.58,0,0,1,.511-0.721,2.908,2.908,0,0,1,3.191-.7,0.579,0.579,0,0,0,.757-0.348,0.619,0.619,0,0,0-.335-0.788,4.061,4.061,0,0,0-4.446.983,4.218,4.218,0,0,0-.968,1.582h-0.833a0.611,0.611,0,0,0,0,1.221h0.587a4.3,4.3,0,0,0,.011.671h-0.6a0.611,0.611,0,0,0,0,1.221h0.9a4.126,4.126,0,0,0,.9,1.423,4.047,4.047,0,0,0,4.446.989,0.619,0.619,0,0,0,.34-0.788,0.581,0.581,0,0,0-.756-0.354v-0.006a2.908,2.908,0,0,1-3.191-.714,2.013,2.013,0,0,1-.417-0.556h3.015Z" transform="translate(-835 -792)"/>
  <circle class="cls-4" cx="63.5" cy="99.5" r="2.5"/>
</svg>
