<svg xmlns="http://www.w3.org/2000/svg" width="79" height="91" viewBox="0 0 79 91"><defs><style>.cls-1{fill:#fff;fill-rule:evenodd}</style></defs><path id="Forma_1" data-name="Forma 1" class="cls-1" d="M1122.98 2626.38c0-.05-.01-.09-.01-.14a2.106 2.106 0 0 0-.17-.5h-.01v-.01a1.444 1.444 0 0 0-.35-.39c-.03-.03-.07-.05-.1-.08s-.06-.05-.1-.07l-37.98-22a.358.358 0 0 0-.11-.04c-.04-.02-.08-.04-.13-.06a1.547 1.547 0 0 0-1.04 0c-.05.02-.09.04-.13.06a.358.358 0 0 0-.11.04l-37.98 22a.705.705 0 0 0-.09.07.444.444 0 0 0-.11.08 1.609 1.609 0 0 0-.35.39.01.01 0 0 1-.01.01 2.106 2.106 0 0 0-.17.5c0 .05-.01.09-.01.14a.5.5 0 0 0-.02.12v43.99a.5.5 0 0 0 .02.12c0 .05.01.09.01.14a2.27 2.27 0 0 0 .17.5c.02.03.05.05.07.08a1.3 1.3 0 0 0 .18.23.794.794 0 0 0 .18.14 1.47 1.47 0 0 0 .13.1l37.98 22a.358.358 0 0 0 .11.04.5.5 0 0 0 .13.05 1.284 1.284 0 0 0 1.04 0 .5.5 0 0 0 .13-.05.358.358 0 0 0 .11-.04l37.98-22a1.47 1.47 0 0 0 .13-.1.794.794 0 0 0 .18-.14 1.3 1.3 0 0 0 .18-.23.417.417 0 0 0 .06-.08h.01a2.27 2.27 0 0 0 .17-.5c0-.05.01-.09.01-.14a.5.5 0 0 0 .02-.12v-43.99a.5.5 0 0 0-.02-.12zm-75.94 2.75l33.43 19.36-33.43 19.37v-38.73zm34.94 60.72l-33.43-19.36 33.43-19.36v38.72zm0-43.99l-33.43-19.36 33.43-19.36v38.72zm3.04-38.72l33.43 19.36-33.43 19.36v-38.72zm0 82.71v-38.72l33.43 19.36zm34.94-21.99l-33.43-19.37 33.43-19.36v38.73z" transform="translate(-1044 -2603)"/></svg>