<svg xmlns="http://www.w3.org/2000/svg" width="24.3" height="16.3" viewBox="0 0 24.3 16.3">
  <defs>
    <style>
      .cls-1 {
        stroke: #000;
        stroke-width: 0.3px;
        fill-rule: evenodd;
      }
    </style>
  </defs>
  <path id="Shape_6_copy_2" data-name="Shape 6 copy 2" class="cls-1" d="M268,392.686c0,2.617-3.4,5.485-5.76,5.485-2.451,0-5.76-2.82-5.76-5.485,0-.131.014-0.566,0-0.915H257l4.626-6.543-0.112-.155L250.5,387.32l4.566,6.28h0.45c0,0.163,0,.784,0,0.914,0,2.617-3.4,5.486-5.76,5.486-2.451,0-5.76-2.821-5.76-5.486,0-.13.014-0.565,0-0.914h0.519l4.34-6.139-0.16-.708,0.449-.092,0.518-.341,0.056-.08,0.359,0.231,12.058-2.461,0.095,0.423,0.764,0.49-0.21.3,4.762,6.55H268C268,391.934,268,392.555,268,392.686Zm-23,1.873-0.032-.02c0.289,1.805,2.2,4.51,4.794,4.547,2.373,0.033,4.48-2.759,4.8-4.572h-9.53Zm8.905-.959-4.171-5.737-4.056,5.737H253.9Zm8.309-7.565-4.056,5.736h8.227Zm-4.7,6.651-0.032.045-0.032-.021c0.289,1.805,2.2,4.51,4.794,4.547,2.373,0.034,4.48-2.759,4.8-4.571h-9.53Z" transform="translate(-243.85 -383.85)"/>
</svg>
