<svg xmlns="http://www.w3.org/2000/svg" width="21.03" height="18.25" viewBox="0 0 21.03 18.25"><defs><style>.cls-1{fill:#323232;fill-rule:evenodd}</style></defs><path id="Forma_1" data-name="Forma 1" class="cls-1" d="M1396.16 432.919l-1.83 7.5a.745.745 0 0 1-.72.568h-12.95a.713.713 0 0 1-.72-.593l-2.31-10.561h-2.5v-1.483h3.1a.746.746 0 0 1 .72.569l.72 3.085h15.77a.674.674 0 0 1 .57.3.694.694 0 0 1 .15.615zm-1.63.638a.446.446 0 0 0-.38-.2h-13.11l-.92.06 1.1 5.813a.474.474 0 0 0 .47.4h11.24a.492.492 0 0 0 .48-.379l1.22-5.281a.445.445 0 0 0-.1-.413zm-11.95 9.271a1.875 1.875 0 1 1-1.87 1.875 1.876 1.876 0 0 1 1.87-1.875zm9 0a1.875 1.875 0 1 1-1.87 1.875 1.876 1.876 0 0 1 1.87-1.875z" transform="translate(-1375.13 -428.344)"/></svg>