<svg xmlns="http://www.w3.org/2000/svg" width="25.47" height="23.313" viewBox="0 0 25.47 23.313"><defs><style>.cls-1{fill:#8d8d8d;fill-rule:evenodd}</style></defs><path id="Forma_1" data-name="Forma 1" class="cls-1" d="M1309.76 150.644a1.066 1.066 0 0 1 1.07 1.06v6.434a1.853 1.853 0 0 1 .79 1.356l3.72 2.131a1.06 1.06 0 0 1-.53 1.979 1.069 1.069 0 0 1-.54-.142l-3.72-2.129a1.84 1.84 0 0 1-.79.179 1.851 1.851 0 0 1-1.07-3.375V151.7a1.065 1.065 0 0 1 1.07-1.056zm0 9.808a.8.8 0 1 0-.8-.8.8.8 0 0 0 .8.8zm14.56-3.047l-2.67 3.181a.537.537 0 0 1-.82 0l-.05-.057-2.62-3.124a.51.51 0 0 1-.08-.564.542.542 0 0 1 .49-.306h1.57a2.029 2.029 0 0 0 .54.027 10.134 10.134 0 1 0-.62 6.351 1.074 1.074 0 0 1 .5.128 1.053 1.053 0 0 1 .39 1.449 11.653 11.653 0 1 1 1.38-7.954h1.58a.543.543 0 0 1 .49.305.51.51 0 0 1-.08.564z" transform="translate(-1299 -147)"/></svg>