<svg id="сантехника" xmlns="http://www.w3.org/2000/svg" width="24.969" height="31" viewBox="0 0 24.969 31">
  <defs>
    <style>
      .cls-1 {
        fill: #2c2c2c;
        fill-rule: evenodd;
      }
    </style>
  </defs>
  <path class="cls-1" d="M65.917,431.936v-6.067a5.912,5.912,0,0,0-10.08-4.15l-0.148.147a5.811,5.811,0,0,0-1.73,4.151v2.251h-0.52a0.517,0.517,0,1,0,0,1.033h2.08a0.517,0.517,0,1,0,0-1.033H55v-2.251a4.79,4.79,0,0,1,1.425-3.419l0.148-.147a4.888,4.888,0,0,1,6.881,0c0.054,0.054.108,0.109,0.159,0.166a4.806,4.806,0,0,1,1.265,3.252v6.067a2.58,2.58,0,0,0,0,5.063v1.085H42.52a0.518,0.518,0,0,0-.52.516,12.479,12.479,0,0,0,24.957,0,0.518,0.518,0,0,0-.52-0.516h-0.52V437M65,443a11.4,11.4,0,0,1-21,0m-0.385-.856a11.227,11.227,0,0,1-.564-3.027H65.906a11.227,11.227,0,0,1-.567,3.027m0.058-6.127a1.55,1.55,0,1,1,1.56-1.55A1.555,1.555,0,0,1,65.4,436.017Z" transform="translate(-42 -420)"/>
</svg>
