<svg id="клей" xmlns="http://www.w3.org/2000/svg" width="29.5" height="29" viewBox="0 0 29.5 29">
  <defs>
    <style>
      .cls-1, .cls-2 {
        fill: #2c2c2c;
        fill-rule: evenodd;
      }

      .cls-2 {
        fill-opacity: 0;
        stroke: #2c2c2c;
        stroke-linejoin: round;
        stroke-width: 1px;
      }
    </style>
  </defs>
  <path class="cls-1" d="M63.07,485.515l5.8-6.609a0.424,0.424,0,0,0-.019-0.58l-1.2-1.2a0.425,0.425,0,0,0-.581-0.019l-6.6,5.808-0.02.019-1.335,1.336-1.7-1.7a0.424,0.424,0,0,0-.6,0l-14.27,14.28-2.419,2.421a0.426,0.426,0,0,0,0,.6l6,6.007a0.423,0.423,0,0,0,.6,0l15.488-15.5,1.2-1.2a0.425,0.425,0,0,0,0-.6l-1.7-1.7,1.335-1.336ZM46.428,504.974l-5.4-5.407,1.818-1.819,5.4,5.407Zm10.51-10.517h-5.4v-1.73a0.424,0.424,0,1,0-.849,0v2.154a0.425,0.425,0,0,0,.425.425h4.978l-7.242,7.248-5.4-5.407,7.242-7.248v1.129a0.424,0.424,0,1,0,.849,0V489.05l4.378-4.382,5.4,5.407Zm5.579-5.583-0.6.6-5.4-5.407,0.6-.6,1.7,1.7,2,2Zm-1.4-2.6-1.4-1.4,1.035-1.036,1.4,1.4Zm0.255-3.018,5.965-5.246,0.638,0.639-5.242,5.969Z" transform="translate(-40 -477)"/>
  <path class="cls-2" d="M64.5,491c2.771,3.929,4.5,6.015,4.5,8.5a4.5,4.5,0,0,1-9,0C60,497.015,61.827,494.923,64.5,491Z" transform="translate(-40 -477)"/>
</svg>
