<svg xmlns="http://www.w3.org/2000/svg" width="22.87" height="22.875" viewBox="0 0 22.87 22.875"><defs><style>.cls-1{fill:#fff;fill-rule:evenodd;opacity:.5}</style></defs><path class="cls-1" d="M19.52 19.527a11.445 11.445 0 0 1-13.5 1.988 7.408 7.408 0 0 1-4.11 1.331 5.374 5.374 0 0 1-.81-.062 1.069 1.069 0 0 1-.31-2.012 4.254 4.254 0 0 0 1.8-2.083 11.435 11.435 0 1 1 16.93.838zm-.91-15.27a10.142 10.142 0 0 0-14.77 13.89.669.669 0 0 1 .11.69 6.513 6.513 0 0 1-1.96 2.706 6.186 6.186 0 0 0 3.59-1.317.639.639 0 0 1 .39-.134.678.678 0 0 1 .33.091A10.147 10.147 0 0 0 18.61 4.257zm-2.38 10.954H6.64a.647.647 0 0 1 0-1.293h9.59a.647.647 0 0 1 0 1.293zm0-3.128H6.64a.647.647 0 0 1 0-1.293h9.59a.647.647 0 0 1 0 1.293zm0-3.127H6.64a.647.647 0 0 1 0-1.293h9.59a.647.647 0 0 1 0 1.293z"/></svg>