<svg xmlns="http://www.w3.org/2000/svg" width="11" height="7.97" viewBox="0 0 11 7.97"><defs><style>.cls-1{fill:gray;fill-rule:evenodd}</style></defs><path id="Rounded_Rectangle_5_copy_4" data-name="Rounded Rectangle 5 copy 4" class="cls-1" d="M856.3 6112l-2.51 2.62a1.038 1.038 0 0 1-1.513.1 1.158 1.158 0 0 1 .092-1.58l1.03-1.08H847a1 1 0 0 1-1-1v-.09a1 1 0 0 1 1-1h6.409l-1.033-1.08a1.157 1.157 0 0 1-.092-1.58 1.046 1.046 0 0 1 1.513.09l2.514 2.63a.992.992 0 0 1 .689.94v.09a.985.985 0 0 1-.7.94z" transform="translate(-846 -6107.03)"/></svg>