<svg xmlns="http://www.w3.org/2000/svg" width="12" height="11" viewBox="0 0 12 11">
  <defs>
    <style>
      .cls-1 {
        fill: #f8a303;
        fill-rule: evenodd;
      }
    </style>
  </defs>
  <path id="Shape_8_copy" data-name="Shape 8 copy" class="cls-1" d="M1051.89,393.452h0c-0.8-1.638-2.14-3.963-3.32-6.013-0.62-1.073-1.2-2.087-1.62-2.857a1.067,1.067,0,0,0-1.9,0c-0.42.771-1,1.785-1.62,2.859-1.18,2.05-2.52,4.373-3.32,6.012a1.1,1.1,0,0,0-.11.469,1.076,1.076,0,0,0,1.07,1.079h9.86a1.076,1.076,0,0,0,1.07-1.079A1.1,1.1,0,0,0,1051.89,393.452ZM1046,394a0.5,0.5,0,1,1,.5-0.5A0.5,0.5,0,0,1,1046,394Zm0.5-1.75a0.249,0.249,0,0,1-.25.25h-0.5a0.249,0.249,0,0,1-.25-0.25v-5.5a0.249,0.249,0,0,1,.25-0.25h0.5a0.249,0.249,0,0,1,.25.25v5.5Z" transform="translate(-1040 -384)"/>
</svg>
