<svg xmlns="http://www.w3.org/2000/svg" width="13" height="13" viewBox="0 0 13 13"><defs><style>.cls-1{fill:#959595;fill-rule:evenodd}</style></defs><path class="cls-1" d="M12.81 7.307L10.073 13H5.686l-2.75-1.3H1v.3H0V4.55h3.231l1.581-1V0H5.5a3.351 3.351 0 0 1 3.437 3.25v1.3h1.99a2.149 2.149 0 0 1 .853.175 1.908 1.908 0 0 1 1.03 2.582zM10.932 5.85H7.567v-2.6a1.963 1.963 0 0 0-1.375-1.839v2.837l-2.543 1.6H1v4.55h2.26l2.75 1.3h3.177l2.371-4.932a.612.612 0 0 0 .062-.268.67.67 0 0 0-.688-.648z"/></svg>