<svg xmlns="http://www.w3.org/2000/svg" width="22.187" height="30.657" viewBox="0 0 22.187 30.657"><defs><style>.cls-1{fill:#b2b2b2;fill-rule:evenodd}</style></defs><path id="Forma_1" data-name="Forma 1" class="cls-1" d="M205 431.6l-1.654 2.132.367 2.671a.6.6 0 0 1-.368.636l-2.5 1.019-1.02 2.5a.6.6 0 0 1-.636.367l-.978-.134v9.409a.6.6 0 0 1-1.023.424l-3.173-3.171-3.174 3.171a.6.6 0 0 1-1.023-.424v-9.416l-.978.134a.6.6 0 0 1-.636-.367l-1.02-2.5-2.5-1.019a.6.6 0 0 1-.367-.636l.366-2.671-1.653-2.125a.6.6 0 0 1 0-.734l1.654-2.13-.366-2.672a.6.6 0 0 1 .367-.636l2.5-1.019 1.02-2.5a.6.6 0 0 1 .636-.367l2.674.366 2.133-1.653a.6.6 0 0 1 .735 0l2.133 1.653 2.674-.366a.6.6 0 0 1 .636.367l1.02 2.5 2.5 1.019a.6.6 0 0 1 .368.636l-.367 2.672 1.654 2.13a.6.6 0 0 1-.001.734zm-13.982 17.158l2.574-2.572a.6.6 0 0 1 .848 0l2.573 2.572v-8.134l-.5-.068-2.133 1.652a.6.6 0 0 1-.735 0l-2.133-1.652-.5.068v8.134zm11.226-19.487a.6.6 0 0 1-.12-.448l.337-2.461-2.3-.939a.6.6 0 0 1-.329-.328l-.939-2.3-2.463.337a.6.6 0 0 1-.449-.12l-1.964-1.523-1.965 1.523a.607.607 0 0 1-.449.12l-2.463-.337-.939 2.3a.6.6 0 0 1-.328.328l-2.3.939.337 2.461a.6.6 0 0 1-.12.448l-1.523 1.962 1.523 1.963a.6.6 0 0 1 .12.449l-.337 2.46 2.3.939a.6.6 0 0 1 .329.328l.939 2.3 2.463-.337a.6.6 0 0 1 .449.12l1.965 1.522 1.965-1.522a.6.6 0 0 1 .448-.12l1.109.151a.6.6 0 0 1 .309.043l1.045.143.939-2.3a.6.6 0 0 1 .329-.328l2.3-.938-.337-2.461a.6.6 0 0 1 .12-.448l1.524-1.963zm-11.786 1.107a.6.6 0 0 1 .484-.408l1.752-.254.784-1.587a.6.6 0 0 1 1.075 0l.783 1.587 1.753.254a.6.6 0 0 1 .332 1.022l-1.268 1.235.3 1.744a.6.6 0 0 1-.87.631l-1.567-.823-1.568.823a.6.6 0 0 1-.87-.631l.3-1.744-1.268-1.235a.6.6 0 0 1-.153-.614zm2.482 1.211a.6.6 0 0 1 .173.53l-.148.858.772-.4a.6.6 0 0 1 .558 0l.77.4-.147-.858a.6.6 0 0 1 .173-.53l.623-.608-.862-.125a.6.6 0 0 1-.451-.327l-.386-.781-.385.781a.6.6 0 0 1-.452.327l-.862.125zm1.076 6.833a7.2 7.2 0 0 1-7.186-7.552c.007-.123.016-.244.027-.361a.6.6 0 0 1 1.194.117c-.01.1-.018.2-.023.305a6 6 0 1 0 1.922-4.1.6.6 0 1 1-.807-.885 7.19 7.19 0 1 1 4.872 12.476zm-6-9.585a.6.6 0 0 1 0-1.2.6.6 0 1 1 .003 1.2z" transform="translate(-182.938 -420.156)"/></svg>