<svg id="_1" data-name="1" xmlns="http://www.w3.org/2000/svg" width="103" height="76" viewBox="0 0 103 76"><defs><style>.cls-1{fill:#f8a303;filter:url(#filter)}.cls-1,.cls-2,.cls-3{fill-rule:evenodd}.cls-2{fill:none;stroke:#fff;stroke-width:2px}.cls-3,.cls-4{fill:#fff}</style><filter id="filter" x="258" y="598" width="76" height="76" filterUnits="userSpaceOnUse"><feOffset result="offset" dy="7" in="SourceAlpha"/><feGaussianBlur result="blur" stdDeviation="4"/><feFlood result="flood" flood-color="#000a23" flood-opacity=".35"/><feComposite result="composite" operator="in" in2="blur"/><feBlend result="blend" in="SourceGraphic"/></filter></defs><path id="Ellipse_2_copy_4" data-name="Ellipse 2 copy 4" class="cls-1" d="M316.721 647a2.72 2.72 0 0 1-2.72 2.72l-16.417 1.267a2.714 2.714 0 0 1-1.938-.814l-22.135-22.135a1.792 1.792 0 0 1 0-2.533l19-19a1.792 1.792 0 0 1 2.533 0l22.156 22.169c.006.006.007.014.013.02a2.707 2.707 0 0 1 .771 1.892zm-4.583-4.4a1.791 1.791 0 1 0 0 2.533 1.789 1.789 0 0 0 0-2.527z" transform="translate(-258 -598)"/><path class="cls-2" d="M312 643s7.585 27.127 46 22" transform="translate(-258 -598)"/><path id="Forma_1_copy_5" data-name="Forma 1 copy 5" class="cls-3" d="M305.929 635.8c0 .08-.275.5-1.554.9a16.009 16.009 0 0 1-4.517.592 18.091 18.091 0 0 1-2.618-.19 7.421 7.421 0 0 0 1.111-2.043c.492.036.993.06 1.507.06a16.753 16.753 0 0 0 4.851-.641 6.261 6.261 0 0 0 1.3-.538v1.56a.51.51 0 0 0-.08.3zm-1.554-2.4a16.009 16.009 0 0 1-4.517.592c-.406 0-.808-.016-1.2-.04a7.384 7.384 0 0 0 .091-2.167c.366.019.736.033 1.113.033a16.753 16.753 0 0 0 4.851-.641 6.2 6.2 0 0 0 1.3-.537v1.56a.506.506 0 0 0-.077.293c-.007.079-.282.501-1.561.907zm0-3.305a15.973 15.973 0 0 1-4.517.592c-.451 0-.895-.02-1.332-.05a7.424 7.424 0 0 0-1.029-2.262 20.092 20.092 0 0 0 2.361.139 16.753 16.753 0 0 0 4.851-.641 6.257 6.257 0 0 0 1.3-.537v1.564a.506.506 0 0 0-.077.293c-.003.075-.278.496-1.557.899zm0-3.3a16.009 16.009 0 0 1-4.517.592 16.858 16.858 0 0 1-3.552-.36 7.369 7.369 0 0 0-2.331-1.414l-.036-1.5a6.382 6.382 0 0 0 1.267.506 18.611 18.611 0 0 0 9.5-.048 6.261 6.261 0 0 0 1.3-.538v1.563a.51.51 0 0 0-.077.293c0 .075-.275.496-1.554.899zm0-3.389a15.926 15.926 0 0 1-4.511.593 15.51 15.51 0 0 1-4.323-.55c-1.261-.378-1.613-.8-1.643-.934a.017.017 0 0 0-.006-.018c.006-.086.276-.5 1.514-.9a15.282 15.282 0 0 1 4.458-.592 15.824 15.824 0 0 1 4.517.592c1.273.4 1.548.818 1.548.9s-.275.503-1.554.903zm-7.151 8.023a6.723 6.723 0 0 1 .118 1.233 6.183 6.183 0 0 1-1.919 4.506 5.69 5.69 0 0 1-8.259-.409 6.265 6.265 0 0 1 .387-8.6 5.733 5.733 0 0 1 3.936-1.588 5.8 5.8 0 0 1 1.737.269 6.056 6.056 0 0 1 4 4.582zm-4.159 2.863a.611.611 0 0 0 0-1.221h-3.443a2.594 2.594 0 0 1-.018-.671h3.766a.611.611 0 0 0 0-1.221h-3.42a3.58 3.58 0 0 1 .511-.721 2.908 2.908 0 0 1 3.191-.7.579.579 0 0 0 .757-.348.619.619 0 0 0-.335-.788 4.061 4.061 0 0 0-4.446.983 4.218 4.218 0 0 0-.968 1.582h-.833a.611.611 0 0 0 0 1.221h.587a4.3 4.3 0 0 0 .011.671h-.6a.611.611 0 0 0 0 1.221h.9a4.126 4.126 0 0 0 .9 1.423 4.047 4.047 0 0 0 4.446.989.619.619 0 0 0 .34-.787.58.58 0 0 0-.756-.355v-.006a2.908 2.908 0 0 1-3.191-.714 2.013 2.013 0 0 1-.417-.556h3.015z" transform="translate(-258 -598)"/><circle class="cls-4" cx="100.5" cy="67.5" r="2.5"/></svg>