<svg xmlns="http://www.w3.org/2000/svg" width="31" height="28" viewBox="0 0 31 28">
  <defs>
    <style>
      .cls-1 {
        fill: #f8a303;
        fill-rule: evenodd;
      }
    </style>
  </defs>
  <path class="cls-1" d="M433.717,826.059h0c-2.064-4.171-5.524-10.087-8.576-15.307-1.6-2.732-3.105-5.311-4.2-7.272a2.762,2.762,0,0,0-4.892,0c-1.091,1.962-2.6,4.544-4.2,7.278-3.05,5.218-6.508,11.132-8.572,15.3a2.679,2.679,0,0,0-.282,1.194A2.761,2.761,0,0,0,405.769,830h25.462A2.761,2.761,0,0,0,434,827.253,2.667,2.667,0,0,0,433.717,826.059Zm-15.217,1.4a1.273,1.273,0,1,1,1.292-1.273A1.284,1.284,0,0,1,418.5,827.455ZM419.792,823a0.641,0.641,0,0,1-.646.636h-1.292a0.641,0.641,0,0,1-.646-0.636V809a0.641,0.641,0,0,1,.646-0.636h1.292a0.641,0.641,0,0,1,.646.636v14Z" transform="translate(-403 -802)"/>
</svg>
