<svg xmlns="http://www.w3.org/2000/svg" width="35" height="35" viewBox="0 0 35 35">
  <defs>
    <style>
      .cls-1 {
        fill: #fff;
        fill-rule: evenodd;
      }
    </style>
  </defs>
  <path id="Rectangle_17_copy_2" data-name="Rectangle 17 copy 2" class="cls-1" d="M1104.05,487.625l0.01-6.332L1094.35,491l-1.35-1.356,9.71-9.709-6.33.017v-1.923l9.61-.026-0.02,9.615Zm-21.21,3.6-9.87-9.875,0.02,6.44-1.96,0-0.03-9.779,9.78,0.026,0.01,1.956-6.44-.017,9.87,9.875Zm-9.89,12.151-0.01,6.332,9.71-9.709,1.35,1.356-9.71,9.709,6.33-.017v1.923L1071,513l0.03-9.615Zm21.59-3.169,9.55,9.554-0.01-6.23,1.89,0.005L1106,513l-9.47-.026v-1.891l6.23,0.016-9.55-9.553Z" transform="translate(-1071 -478)"/>
</svg>
