<svg id="Группа_1" data-name="Группа 1" xmlns="http://www.w3.org/2000/svg" width="112" height="84" viewBox="0 0 112 84"><defs><style>.cls-1{fill:#fff;fill-rule:evenodd}</style></defs><path id="Forma_1" data-name="Forma 1" class="cls-1" d="M438.842 2661.59c-.01-.02-.016-.05-.028-.08a3.389 3.389 0 0 0-.141-.39l-7.158-14.29a3.074 3.074 0 0 0-2.773-1.71H411.1a1.547 1.547 0 0 0-1.55 1.55v18.57H408v-37.14a3.1 3.1 0 0 0-3.1-3.1h-55.8a3.1 3.1 0 0 0-3.1 3.1v46.65a3.072 3.072 0 0 0 2.622 3.05l6.863 1.07a9.3 9.3 0 1 0 18.415 1.84 9.235 9.235 0 0 0-.14-1.54h40.58a9.3 9.3 0 1 0 18.32 0h3.24a3.1 3.1 0 0 0 3.1-3.1v-13.56a3.129 3.129 0 0 0-.158-.92zM349.1 2628.1h55.8v37.14h-55.8v-37.14zm15.5 58.8a6.19 6.19 0 1 1 6.2-6.19 6.2 6.2 0 0 1-6.2 6.19zm44.95-10.83h-36.908a9.287 9.287 0 0 0-15.993-.15l-7.549-1.17v-6.42h60.45v7.74zm22.292-21.67l3.1 6.19H421.95v-6.19h9.892zm-8.342 32.5a6.19 6.19 0 1 1 6.2-6.19 6.2 6.2 0 0 1-6.2 6.19zm12.4-10.83h-4.358a9.289 9.289 0 0 0-16.084 0h-2.808v-27.86h16.092l1.55 3.1H420.4a1.547 1.547 0 0 0-1.55 1.55v9.28a1.547 1.547 0 0 0 1.55 1.55h15.5v12.38z" transform="translate(-327 -2607)"/><path id="Forma_1_copy_7" data-name="Forma 1 copy 7" class="cls-1" d="M327 2690.79v-80.69a3.1 3.1 0 0 1 3.1-3.1h35.8a3.1 3.1 0 0 1 3.1 3.1v10.14h-3.1v-10.14h-35.8l-.1 80.9z" transform="translate(-327 -2607)"/></svg>