<svg xmlns="http://www.w3.org/2000/svg" width="87" height="87" viewBox="0 0 87 87"><defs><style>.cls-1{fill:#fff;fill-rule:evenodd}</style></defs><path class="cls-1" d="M85.55 87h-52.2a1.45 1.45 0 0 1-1.45-1.45v-23.2a1.45 1.45 0 0 1 2.9 0v4.35h14.5V44.95a1.45 1.45 0 0 1 2.9 0v4.35h14.5V27.55a1.45 1.45 0 1 1 2.9 0v4.35h14.5v-4.35a1.45 1.45 0 1 1 2.9 0v58A1.45 1.45 0 0 1 85.55 87zM49.3 69.6H34.8v14.5h14.5V69.6zm17.4-17.4H52.2v14.5h14.5V52.2zm0 17.4H52.2v14.5h14.5V69.6zm17.4-34.8H69.6v14.5h14.5V34.8zm0 17.4H69.6v14.5h14.5V52.2zm0 17.4H69.6v14.5h14.5V69.6zM43.5 42.05a1.447 1.447 0 0 1-.507 1.1l-20.3 17.4a1.445 1.445 0 0 1-1.886 0l-20.3-17.4a1.447 1.447 0 0 1 0-2.2l5.484-4.7-5.484-4.7a1.447 1.447 0 0 1 0-2.2l5.484-4.7-5.484-4.7a1.447 1.447 0 0 1 0-2.2l20.3-17.4a1.438 1.438 0 0 1 1.886 0l20.3 17.4a1.447 1.447 0 0 1 0 2.2l-5.484 4.7 5.484 4.7a1.447 1.447 0 0 1 0 2.2l-5.484 4.7 5.484 4.7a1.447 1.447 0 0 1 .507 1.1zm-3.678-23.2L21.75 3.36 3.677 18.85 21.75 34.34zm0 11.6l-4.54-3.89-12.588 10.79a1.445 1.445 0 0 1-1.886 0L8.22 26.56l-4.54 3.89 18.071 15.49zm-4.54 7.71L22.694 48.95a1.445 1.445 0 0 1-1.886 0L8.22 38.16l-4.54 3.89 18.071 15.49 18.071-15.49z"/></svg>