<svg xmlns="http://www.w3.org/2000/svg" width="87" height="87" viewBox="0 0 87 87"><defs><style>.cls-1{fill:#fff;fill-rule:evenodd}</style></defs><path id="Forma_1" data-name="Forma 1" class="cls-1" d="M660.711 2665.15l-24.571 24.57a4.32 4.32 0 0 1-3.077 1.28 4.308 4.308 0 0 1-3.082-1.29l-5.083-5.08a1.45 1.45 0 0 1 2.05-2.05l5.089 5.09a1.435 1.435 0 0 0 1.026.43 1.409 1.409 0 0 0 1.02-.43l24.583-24.58a1.436 1.436 0 0 0 .007-2.05l-54.143-54.14H577.9v26.63l14.205 14.2a1.45 1.45 0 1 1-2.051 2.05l-14.629-14.63a1.442 1.442 0 0 1-.425-1.02v-28.68a1.45 1.45 0 0 1 1.45-1.45h28.68a1.454 1.454 0 0 1 1.025.42l54.562 54.57a4.331 4.331 0 0 1-.006 6.16zm-74.105-43.74a5.8 5.8 0 1 1 5.8 5.8 5.805 5.805 0 0 1-5.8-5.8zm8.7 0a2.9 2.9 0 1 0-2.9 2.9 2.9 2.9 0 0 0 2.9-2.9zm-10.174 43.48h2.986a20.294 20.294 0 0 1 18.775-18.77v-2.99a1.45 1.45 0 1 1 2.9 0v2.99a20.294 20.294 0 0 1 18.775 18.77h2.985a1.45 1.45 0 0 1 0 2.9h-2.984a20.309 20.309 0 0 1-18.776 18.78v2.98a1.45 1.45 0 0 1-2.9 0v-2.98a20.308 20.308 0 0 1-18.776-18.78h-2.985a1.45 1.45 0 0 1 0-2.9zm21.761 18.78v-2.82a1.45 1.45 0 0 1 2.9 0v2.82a17.4 17.4 0 0 0 15.875-15.88h-2.815a1.45 1.45 0 0 1 0-2.9h2.815a17.407 17.407 0 0 0-15.875-15.87v2.81a1.45 1.45 0 1 1-2.9 0v-2.81a17.406 17.406 0 0 0-15.875 15.87h2.814a1.45 1.45 0 0 1 0 2.9h-2.815a17.4 17.4 0 0 0 15.876 15.88zm1.45-23.13a5.8 5.8 0 1 1-5.8 5.8 5.805 5.805 0 0 1 5.8-5.8zm0 8.7a2.9 2.9 0 1 0-2.9-2.9 2.9 2.9 0 0 0 2.9 2.9z" transform="translate(-575 -2604)"/></svg>