<svg xmlns="http://www.w3.org/2000/svg" width="84" height="77" viewBox="0 0 84 77"><defs><style>.cls-1{fill:#fff;fill-rule:evenodd}</style></defs><path id="Forma_1" data-name="Forma 1" class="cls-1" d="M1287.25 2634.5a1.75 1.75 0 0 1 0 3.5h-3.5a1.75 1.75 0 0 1 0-3.5h3.5zm10.5-6.3a1.746 1.746 0 0 1-1.75-1.75v-4.03a1.75 1.75 0 0 1 3.5 0v4.03a1.746 1.746 0 0 1-1.75 1.75zm1.75 8.05a1.746 1.746 0 0 1-1.75 1.75h-3.5a1.75 1.75 0 0 1 0-3.5h1.75a1.75 1.75 0 0 1 3.5 0v1.75zm50.75 33.25h-22.75v15.75a1.746 1.746 0 0 1-1.75 1.75h-56a1.746 1.746 0 0 1-1.75-1.75v-7a1.75 1.75 0 0 1 3.5 0v5.25h52.5v-15.75a1.746 1.746 0 0 1 1.75-1.75h22.75v-28H1317v5.25a1.75 1.75 0 0 1-3.5 0v-7a1.746 1.746 0 0 1 1.75-1.75h33.25v-21h-49v.87a1.75 1.75 0 0 1-3.5 0v-.87h-24.5v42h24.5v-5.25a1.75 1.75 0 0 1 3.5 0v7a1.746 1.746 0 0 1-1.75 1.75h-28a1.746 1.746 0 0 1-1.75-1.75v-45.5a1.746 1.746 0 0 1 1.75-1.75h80.5a1.746 1.746 0 0 1 1.75 1.75v56a1.746 1.746 0 0 1-1.75 1.75zm-77-35h3.5a1.75 1.75 0 0 1 0 3.5h-3.5a1.75 1.75 0 0 1 0-3.5z" transform="translate(-1268 -2610)"/></svg>