<svg xmlns="http://www.w3.org/2000/svg" width="82" height="82" viewBox="0 0 82 82"><defs><style>.cls-1{fill:#fff;fill-rule:evenodd}</style></defs><path id="Forma_1" data-name="Forma 1" class="cls-1" d="M885.217 2613.13a1.783 1.783 0 0 1-1.782-1.78v-1.78h-1.783a1.785 1.785 0 0 1 0-3.57h3.565a1.784 1.784 0 0 1 1.783 1.78v3.57a1.784 1.784 0 0 1-1.783 1.78zm-10.047-3.56h-6.481a1.785 1.785 0 0 1 0-3.57h6.481a1.785 1.785 0 0 1 0 3.57zm-12.966 0h-6.482a1.785 1.785 0 0 1 0-3.57h6.478a1.785 1.785 0 0 1 0 3.57zm-12.963 0h-6.482a1.785 1.785 0 0 1 0-3.57h6.482a1.785 1.785 0 0 1 0 3.57zm-12.963 0H829.8a1.785 1.785 0 0 1 0-3.57h6.478a1.785 1.785 0 0 1 0 3.57zm-12.967 0h-6.482a1.785 1.785 0 0 1 0-3.57h6.482a1.785 1.785 0 0 1 0 3.57zm-12.963 0h-1.783v1.78a1.783 1.783 0 0 1-3.565 0v-3.57a1.784 1.784 0 0 1 1.783-1.78h3.565a1.785 1.785 0 0 1 0 3.57zm-3.565 6.48a1.783 1.783 0 0 1 1.782 1.78v6.48a1.783 1.783 0 1 1-3.565 0v-6.48a1.784 1.784 0 0 1 1.783-1.78zm0 12.96a1.785 1.785 0 0 1 1.782 1.79v6.47a1.783 1.783 0 1 1-3.565 0v-6.47a1.786 1.786 0 0 1 1.783-1.79zm39.434-6.92a1.784 1.784 0 0 1-1.783-1.78v-6.48a1.783 1.783 0 0 1 3.566 0v6.48a1.784 1.784 0 0 1-1.783 1.78zm1.783 11.18a1.783 1.783 0 1 1-3.566 0v-6.48a1.783 1.783 0 0 1 3.566 0v6.48zm-41.217 8.71a1.783 1.783 0 0 1 1.782 1.78v1.46h35.869v-5.46a1.783 1.783 0 0 1 3.566 0v6.48a1.742 1.742 0 0 1-.218.81v37.38h1.459a1.785 1.785 0 0 1 0 3.57h-42.458a1.784 1.784 0 0 1-1.783-1.78v-42.46a1.778 1.778 0 0 1 1.783-1.78zm1.782 8.27v34.18h35.652v-35.65h-35.652v1.47zM849.8 2649a2.013 2.013 0 0 1 0-4h6.478a2.013 2.013 0 0 1 0 4H849.8zm5.924 35.43h6.476a1.785 1.785 0 0 1 0 3.57h-6.482a1.785 1.785 0 0 1 .004-3.57zm7.039-35.43a2.013 2.013 0 0 1 0-4h6.482a2.013 2.013 0 0 1 0 4h-6.482zm5.928 35.43h6.481a1.785 1.785 0 0 1 0 3.57h-6.481a1.785 1.785 0 0 1-.002-3.57zm18.309-8.26a1.783 1.783 0 0 1-3.566 0v-6.48a1.783 1.783 0 1 1 3.566 0v6.48zm0-12.97a1.783 1.783 0 1 1-3.566 0v-6.47a1.783 1.783 0 1 1 3.566 0v6.47zm0-12.96a1.783 1.783 0 0 1-3.566 0v-1.79a1.675 1.675 0 0 1-1.225.55h-6.481a2.013 2.013 0 0 1 0-4h6.481a1.675 1.675 0 0 1 1.225.55v-1.79a1.783 1.783 0 0 1 3.566 0v6.48zm-1.783-24.15a1.784 1.784 0 0 1-1.783-1.78v-6.48a1.783 1.783 0 0 1 3.566 0v6.48a1.784 1.784 0 0 1-1.783 1.78zm1.783 11.18a1.783 1.783 0 1 1-3.566 0v-6.48a1.783 1.783 0 0 1 3.566 0v6.48zm-5.348 47.16h1.782v-1.78a1.783 1.783 0 0 1 3.566 0v3.57a1.784 1.784 0 0 1-1.783 1.78h-3.565a1.785 1.785 0 0 1 0-3.57z" transform="translate(-805 -2606)"/></svg>