<svg xmlns="http://www.w3.org/2000/svg" width="26.34" height="22.812" viewBox="0 0 26.34 22.812"><defs><style>.cls-1{fill:#8d8d8d;fill-rule:evenodd}</style></defs><path id="Forma_1_copy_2" data-name="Forma 1 copy 2" class="cls-1" d="M1431.2 153.426l-2.29 9.389a.928.928 0 0 1-.9.712h-16.21a.9.9 0 0 1-.9-.743l-2.88-13.221h-3.13v-1.857h3.87a.93.93 0 0 1 .9.712l.9 3.863h19.75a.84.84 0 0 1 .71.371.867.867 0 0 1 .18.774zm-2.03.8a.572.572 0 0 0-.48-.247h-16.42l-1.14.074 1.37 7.278a.6.6 0 0 0 .6.495h14.06a.611.611 0 0 0 .6-.475l1.53-6.609a.568.568 0 0 0-.12-.517zm-14.96 11.6a2.348 2.348 0 1 1-2.35 2.348 2.347 2.347 0 0 1 2.35-2.345zm11.27 0a2.348 2.348 0 1 1-2.35 2.348 2.347 2.347 0 0 1 2.35-2.345z" transform="translate(-1404.88 -147.719)"/></svg>