<svg id="Группа_2" data-name="Группа 2" xmlns="http://www.w3.org/2000/svg" width="39" height="36" viewBox="0 0 39 36"><defs><style>.cls-1,.cls-4{fill:#323232}.cls-2,.cls-3{fill:#ddd}.cls-3,.cls-4{fill-rule:evenodd}</style></defs><path id="Rectangle_3_copy" data-name="Rectangle 3 copy" class="cls-1" d="M0 0h39v36H0z"/><circle id="Ellipse_2_copy" data-name="Ellipse 2 copy" class="cls-2" cx="28" cy="11" r="7"/><path id="Forma_1" data-name="Forma 1" class="cls-3" d="M1702 359.516l-2.26 9.041a.919.919 0 0 1-.89.686h-16.01a.878.878 0 0 1-.89-.715l-2.85-12.728h-3.09v-1.789h3.83a.92.92 0 0 1 .89.686l.88 3.72h19.5a.836.836 0 0 1 .71.358.81.81 0 0 1 .18.741zm-2.01.769a.548.548 0 0 0-.47-.238h-16.21l-1.14.072 1.36 7.008a.587.587 0 0 0 .59.477h13.89a.6.6 0 0 0 .59-.457l1.51-6.365a.533.533 0 0 0-.12-.497zm-14.77 11.175a2.261 2.261 0 1 1-2.32 2.26 2.292 2.292 0 0 1 2.32-2.26zm11.13 0a2.261 2.261 0 1 1-2.32 2.26 2.292 2.292 0 0 1 2.32-2.26z" transform="translate(-1670 -347)"/><path id="Rounded_Rectangle_2_copy" data-name="Rounded Rectangle 2 copy" class="cls-4" d="M1701 359h-2v2a1 1 0 0 1-2 0v-2h-2a1 1 0 0 1 0-2h2v-2a1 1 0 0 1 2 0v2h2a1 1 0 0 1 0 2z" transform="translate(-1670 -347)"/></svg>