<svg xmlns="http://www.w3.org/2000/svg" width="34" height="23" viewBox="0 0 34 23"><defs><style>.cls-1{fill:#fff;fill-rule:evenodd}</style></defs><path id="Shape_6_copy_2" data-name="Shape 6 copy 2" class="cls-1" d="M1214 159.486c0 3.761-4.82 7.885-8.16 7.885-3.47 0-8.16-4.055-8.16-7.885 0-.188.02-.813 0-1.315h.74l6.55-9.406-.16-.223-15.6 3.23 6.47 9.028h.64v1.314c0 3.762-4.82 7.886-8.16 7.886-3.47 0-8.16-4.055-8.16-7.886 0-.188.02-.812 0-1.314h.73l6.15-8.824-.22-1.019.63-.131.74-.491.08-.114.51.331 17.08-3.538.13.608 1.08.7-.29.428 6.74 9.417h.64v1.315zm-32.59 2.693l-.04-.031c.41 2.595 3.11 6.485 6.79 6.538 3.36.048 6.35-3.967 6.8-6.572h-13.5zm12.62-1.379l-5.91-8.246-5.75 8.246h11.66zm11.77-10.875l-5.75 8.246h11.66zm-6.66 9.561l-.05.064-.04-.03c.41 2.594 3.11 6.484 6.79 6.537 3.36.048 6.35-3.967 6.8-6.571h-13.5z" transform="translate(-1180 -147)"/></svg>