<svg id="Группа_1" data-name="Группа 1" xmlns="http://www.w3.org/2000/svg" width="28.81" height="26.125" viewBox="0 0 28.81 26.125"><defs><style>.cls-1,.cls-2{fill:#323232}.cls-1,.cls-3{fill-rule:evenodd}.cls-1{fill-opacity:0;stroke:#323232;stroke-linejoin:round;stroke-width:2px}.cls-3{fill:#ddd}</style></defs><path id="Forma_1_copy_8" data-name="Forma 1 copy 8" class="cls-1" d="M1174.85 374.113l-1.63-1.632c-6.06-5.36-10.03-8.972-10.03-13.4a6.323 6.323 0 0 1 6.42-6.409c1.98 0 3.96 2.311 5.24 3.826 1.28-1.515 3.27-3.826 5.25-3.826a6.321 6.321 0 0 1 6.41 6.409c0 4.429-3.96 8.041-10.03 13.4z" transform="translate(-1162.19 -349)"/><circle id="Ellipse_2_copy" data-name="Ellipse 2 copy" class="cls-2" cx="21.81" cy="7" r="7"/><path id="Rounded_Rectangle_2_copy" data-name="Rounded Rectangle 2 copy" class="cls-3" d="M1187 357h-2v2a1 1 0 0 1-2 0v-2h-2a1 1 0 0 1 0-2h2v-2a1 1 0 0 1 2 0v2h2a1 1 0 0 1 0 2z" transform="translate(-1162.19 -349)"/></svg>