<svg xmlns="http://www.w3.org/2000/svg" width="29.812" height="29.812" viewBox="0 0 29.812 29.812"><defs><style>.cls-1{fill:#b2b2b2;fill-rule:evenodd}</style></defs><path id="Forma_1" data-name="Forma 1" class="cls-1" d="M337.8 430.525l3.433 3.433a.582.582 0 0 1-.237.967l-3.438 1.08v9.2a.581.581 0 0 1-.4.552l-10.487 3.5a.587.587 0 0 1-.373 0l-9.333-3.5a.582.582 0 0 1-.378-.545v-8.959l-3.223-1.074a.582.582 0 0 1-.315-.852l2.222-3.7-3.524-3.523a.583.583 0 0 1 .239-.968l9.684-3.019a5.827 5.827 0 0 1 10.965.438l8.361 2.58a.583.583 0 0 1 .24.969zm1.929 3.577l-2.911-2.91-9.352 3.117 2.331 2.914zm-12.662 13.788l9.322-3.106v-8.413l-6.627 2.082a.583.583 0 0 1-.629-.191l-2.066-2.581v12.209zm-.582-14.484l8.644-2.881-3.8-1.267a5.826 5.826 0 0 1-8.779-.3l-4.707 1.568zm-8.74 11.394l8.157 3.058v-11.735l-1.374 2.29a.584.584 0 0 1-.5.283c-.178 0 .135.065-6.283-2.063v8.167zm-3.331-10.5l9.355 3.118 1.842-3.07-9.354-3.117zm6.827-9.012a5.951 5.951 0 0 1 .062-.845l-8.057 2.512 2.909 2.909 5.732-1.91a5.785 5.785 0 0 1-.646-2.671zm10.348-1.134a4.662 4.662 0 1 0-.9 4.067 4.669 4.669 0 0 0 .9-4.072zm1.287.691c.011.147.017.3.017.443a5.84 5.84 0 0 1-.829 2.993l4.75 1.583 2.907-2.906zm-5.979 2.6a.582.582 0 0 1-.824 0l-1.166-1.164a.583.583 0 1 1 .824-.824l.754.753 3.083-3.083a.582.582 0 1 1 .824.823zm-2.2 15.611a.583.583 0 0 1-.75.341l-1.3-.486a.583.583 0 0 1 .409-1.091l1.3.486a.583.583 0 0 1 .344.747zm-4.042-.878a.583.583 0 1 1 .583-.583.583.583 0 0 1-.58.58zm.2 1.306l3.5 1.31a.583.583 0 0 1-.409 1.091l-3.5-1.311a.582.582 0 1 1 .417-1.093z" transform="translate(-311.594 -419.469)"/></svg>