<svg xmlns="http://www.w3.org/2000/svg" width="29" height="29" viewBox="0 0 29 29"><defs><style>.cls-1{fill:#b2b2b2;fill-rule:evenodd}</style></defs><path id="Forma_1" data-name="Forma 1" class="cls-1" d="M62.867 426.051v17.2a1.7 1.7 0 0 1-1.7 1.7h-11.1v3.5a1.7 1.7 0 1 1-1.133 0v-3.5h-11.1a1.7 1.7 0 0 1-1.7-1.7v-17.2a1.7 1.7 0 0 1 .566-3.3h25.6a1.7 1.7 0 0 1 .567 3.3zM49.5 450.617a.567.567 0 1 0-.566-.567.567.567 0 0 0 .566.567zm-12.234-7.363a.567.567 0 0 0 .566.566h23.336a.567.567 0 0 0 .566-.566v-17.106H37.266v17.106zM62.3 423.883H36.7a.566.566 0 1 0 0 1.132h25.6a.566.566 0 1 0 0-1.132zm-3.738 17.332H40.1a.567.567 0 0 1 0-1.133h18.463a.567.567 0 0 1 0 1.133zm-4.531-2.266a5.1 5.1 0 1 1 5.1-5.1 5.1 5.1 0 0 1-5.1 5.1zm.566-9.021v3.357h3.357a3.972 3.972 0 0 0-3.354-3.357zm-.566 4.49a.567.567 0 0 1-.566-.567v-3.924a3.965 3.965 0 1 0 4.49 4.491h-3.924zm-7.93 4.531h-6a.567.567 0 0 1 0-1.133h6a.567.567 0 0 1-.001 1.133zm0-2.265h-6a.567.567 0 0 1 0-1.133h6a.567.567 0 0 1-.001 1.133zm0-2.266a.567.567 0 1 1 .566-.567.567.567 0 0 1-.567.567zm-6-1.133h3.738a.567.567 0 0 1 0 1.133H40.1a.567.567 0 0 1 0-1.133zm6-1.133h-6a.567.567 0 0 1 0-1.133h6a.567.567 0 0 1-.001 1.133zm0-2.266a.566.566 0 1 1 .566-.566.566.566 0 0 1-.567.566zm-2.266 0H40.1a.566.566 0 1 1 0-1.132h3.738a.566.566 0 1 1-.002 1.132z" transform="translate(-35 -422.75)"/></svg>