<svg xmlns="http://www.w3.org/2000/svg" width="25" height="17.5" viewBox="0 0 25 17.5"><defs><style>.cls-1{fill-rule:evenodd;fill:#056493}</style></defs><path id="Shape_6_copy" data-name="Shape 6 copy" class="cls-1" d="M216 111c0 2.862-3.545 6-6 6-2.553 0-6-3.085-6-6 0-.143.015-.618 0-1h.541l4.819-7.157-.118-.169-11.467 2.457 4.757 6.869H203v1c0 2.862-3.545 6-6 6-2.553 0-6-3.085-6-6 0-.143.015-.618 0-1h.54l4.521-6.714-.166-.775.468-.1.539-.374.058-.086.375.252 12.56-2.692.1.462.8.536-.219.326 4.956 7.165H216v1zm-23.96 2.049l-.035-.023c.3 1.974 2.292 4.934 5 4.974 2.472.037 4.666-3.018 5-5h-9.927zm9.275-1.049l-4.344-6.274-4.225 6.274h8.569zm8.656-8.274L205.746 110h8.569zm-4.9 7.274l-.033.049-.035-.023c.3 1.974 2.292 4.934 5 4.974 2.472.037 4.666-3.018 5-5h-9.927z" transform="translate(-191 -101.5)"/></svg>